<svg width="25" height="25" viewBox="0 0 25 25" fill="none" xmlns="http://www.w3.org/2000/svg">
<g clip-path="url(#clip0_693_2458)">
<g opacity="0.7" clip-path="url(#clip1_693_2458)">
<g clip-path="url(#clip2_693_2458)">
<path d="M24.2609 7.66739C24.2609 7.66739 24.0266 6.10462 23.3047 5.41843C22.3906 4.5153 21.3688 4.51087 20.9 4.45775C17.5438 4.22754 12.5047 4.22754 12.5047 4.22754H12.4953C12.4953 4.22754 7.45625 4.22754 4.1 4.45775C3.63125 4.51087 2.60938 4.5153 1.69531 5.41843C0.973438 6.10462 0.74375 7.66739 0.74375 7.66739C0.74375 7.66739 0.5 9.50462 0.5 11.3374V13.0551C0.5 14.8879 0.739062 16.7252 0.739062 16.7252C0.739062 16.7252 0.973437 18.2879 1.69062 18.9742C2.60469 19.8772 3.80469 19.8463 4.33906 19.9436C6.26094 20.1164 12.5 20.1695 12.5 20.1695C12.5 20.1695 17.5438 20.1606 20.9 19.9349C21.3688 19.8817 22.3906 19.8772 23.3047 18.9742C24.0266 18.2879 24.2609 16.7252 24.2609 16.7252C24.2609 16.7252 24.5 14.8924 24.5 13.0551V11.3374C24.5 9.50462 24.2609 7.66739 24.2609 7.66739ZM10.0203 15.1403V8.76972L16.5031 11.9661L10.0203 15.1403Z" fill="white"/>
</g>
</g>
</g>
<defs>
<clipPath id="clip0_693_2458">
<rect width="24" height="24" fill="white" transform="translate(0.5 0.5)"/>
</clipPath>
<clipPath id="clip1_693_2458">
<rect width="24" height="17" fill="white" transform="translate(0.5 3.5)"/>
</clipPath>
<clipPath id="clip2_693_2458">
<rect width="24" height="17" fill="white" transform="translate(0.5 3.5)"/>
</clipPath>
</defs>
</svg>
