<svg width="25" height="25" viewBox="0 0 25 25" fill="none" xmlns="http://www.w3.org/2000/svg">
<g clip-path="url(#clip0_693_2443)">
<g opacity="0.7">
<g clip-path="url(#clip1_693_2443)">
<g clip-path="url(#clip2_693_2443)">
<path d="M8.05 22.4627C17.105 22.4627 22.058 14.9587 22.058 8.45467C22.058 8.24367 22.054 8.02767 22.044 7.81667C23.008 7.11967 23.84 6.25667 24.5 5.26767C23.602 5.66667 22.65 5.92767 21.674 6.04067C22.701 5.42567 23.471 4.45767 23.839 3.31767C22.873 3.89067 21.816 4.29467 20.713 4.51267C19.971 3.72367 18.989 3.20167 17.92 3.02667C16.85 2.85167 15.753 3.03367 14.798 3.54467C13.842 4.05567 13.082 4.86667 12.634 5.85367C12.186 6.84067 12.075 7.94667 12.319 9.00267C10.362 8.90467 8.448 8.39567 6.7 7.51067C4.952 6.62467 3.41 5.38167 2.173 3.86167C1.544 4.94567 1.352 6.22767 1.635 7.44867C1.918 8.66867 2.655 9.73567 3.696 10.4327C2.915 10.4077 2.15 10.1967 1.466 9.81867V9.87967C1.465 11.0167 1.858 12.1187 2.578 12.9987C3.299 13.8797 4.301 14.4827 5.416 14.7077C4.692 14.9057 3.932 14.9347 3.195 14.7917C3.509 15.7697 4.122 16.6257 4.946 17.2387C5.77 17.8517 6.765 18.1927 7.792 18.2137C6.048 19.5837 3.894 20.3267 1.677 20.3227C1.283 20.3227 0.89 20.2987 0.5 20.2507C2.753 21.6957 5.374 22.4637 8.05 22.4627Z" fill="white"/>
</g>
</g>
</g>
</g>
<defs>
<clipPath id="clip0_693_2443">
<rect width="24" height="24" fill="white" transform="translate(0.5 0.5)"/>
</clipPath>
<clipPath id="clip1_693_2443">
<rect width="24" height="20" fill="white" transform="translate(0.5 2.5)"/>
</clipPath>
<clipPath id="clip2_693_2443">
<rect width="24" height="20" fill="white" transform="translate(0.5 2.5)"/>
</clipPath>
</defs>
</svg>
