<svg width="23" height="23" viewBox="0 0 23 23" fill="none" xmlns="http://www.w3.org/2000/svg">
<g opacity="0.7" clip-path="url(#clip0_693_2449)">
<g clip-path="url(#clip1_693_2449)">
<path fill-rule="evenodd" clip-rule="evenodd" d="M3.23613 5.55917C4.67821 5.55917 5.84725 4.39012 5.84725 2.94804C5.84725 1.50595 4.67821 0.336914 3.23613 0.336914C1.79404 0.336914 0.625 1.50595 0.625 2.94804C0.625 4.39012 1.79404 5.55917 3.23613 5.55917ZM22.4279 22.0861V13.8495C22.4279 11.4673 22.0666 9.55997 20.8665 8.46837C19.9517 7.63387 18.6859 7.06842 16.2908 7.18715C14.1896 7.29306 12.9349 9.12607 12.7034 9.49848L12.6394 7.49635H8.32422V22.0852H12.8589V14.4406L12.8512 14.2125C12.8879 13.5933 12.987 12.7442 13.4107 12.0985C13.9231 11.3178 14.9208 11.0479 15.968 11.1589C17.5293 11.3204 17.8659 12.962 17.8659 13.7291V22.0869L22.4279 22.0861ZM0.94873 7.4973H5.47058V22.0861H0.94873V7.4973Z" fill="white"/>
</g>
</g>
<defs>
<clipPath id="clip0_693_2449">
<rect width="22" height="23" fill="white" transform="translate(0.5)"/>
</clipPath>
<clipPath id="clip1_693_2449">
<rect width="22" height="23" fill="white" transform="translate(0.5)"/>
</clipPath>
</defs>
</svg>
