<svg width="25" height="25" viewBox="0 0 25 25" fill="none" xmlns="http://www.w3.org/2000/svg">
<g clip-path="url(#clip0_693_2453)">
<g opacity="0.7" clip-path="url(#clip1_693_2453)">
<g clip-path="url(#clip2_693_2453)">
<path d="M16.8548 0.695312H13.0027V15.7353C13.0027 17.5274 11.5211 18.9994 9.67739 18.9994C7.83366 18.9994 6.35209 17.5274 6.35209 15.7353C6.35209 13.9753 7.80073 12.5353 9.57864 12.4713V8.69533C5.66069 8.75929 2.5 11.8633 2.5 15.7353C2.5 19.6393 5.72653 22.7753 9.71033 22.7753C13.6941 22.7753 16.9206 19.6073 16.9206 15.7353V8.02329C18.3692 9.04732 20.1471 9.65532 22.0238 9.68734V5.91132C19.1266 5.81531 16.8548 3.51131 16.8548 0.695312Z" fill="white"/>
</g>
</g>
</g>
<defs>
<clipPath id="clip0_693_2453">
<rect width="24" height="24" fill="white" transform="translate(0.5 0.5)"/>
</clipPath>
<clipPath id="clip1_693_2453">
<rect width="20" height="23" fill="white" transform="translate(2.5 0.5)"/>
</clipPath>
<clipPath id="clip2_693_2453">
<rect width="20" height="23" fill="white" transform="translate(2.5 0.5)"/>
</clipPath>
</defs>
</svg>
