<svg width="119" height="118" viewBox="0 0 119 118" fill="none" xmlns="http://www.w3.org/2000/svg">
<path d="M20.166 73.75V93.4167" stroke="#5A465E" stroke-width="5" stroke-linecap="round" stroke-linejoin="round"/>
<path d="M59.5 44.25V93.4167" stroke="#5A465E" stroke-width="5" stroke-linecap="round" stroke-linejoin="round"/>
<path d="M108.667 108.167H10.334" stroke="#5A465E" stroke-width="5" stroke-linecap="round" stroke-linejoin="round"/>
<path d="M98.834 63.9165V93.4165" stroke="#5A465E" stroke-width="5" stroke-linecap="round" stroke-linejoin="round"/>
<path d="M28.0344 43.2665C26.2404 40.8783 23.3843 39.3335 20.1673 39.3335C14.7365 39.3335 10.334 43.736 10.334 49.1668C10.334 54.5978 14.7365 59.0002 20.1673 59.0002C25.5981 59.0002 30.0007 54.5978 30.0007 49.1668C30.0007 46.953 29.2691 44.91 28.0344 43.2665ZM28.0344 43.2665L51.6335 25.5672M51.6335 25.5672C53.4276 27.9554 56.2837 29.5002 59.5006 29.5002C63.3504 29.5002 66.6834 27.288 68.2975 24.0654M51.6335 25.5672C50.3989 23.9236 49.6673 21.8807 49.6673 19.6668C49.6673 14.236 54.0697 9.8335 59.5006 9.8335C64.9316 9.8335 69.334 14.236 69.334 19.6668C69.334 21.2479 68.9608 22.7419 68.2975 24.0654M68.2975 24.0654L90.0371 34.9349M90.0371 34.9349C89.3738 36.2585 89.0006 37.7524 89.0006 39.3335C89.0006 44.7643 93.403 49.1668 98.834 49.1668C104.265 49.1668 108.667 44.7643 108.667 39.3335C108.667 33.9027 104.265 29.5002 98.834 29.5002C94.9842 29.5002 91.6512 31.7124 90.0371 34.9349Z" stroke="#5A465E" stroke-width="5"/>
</svg>
