<svg width="70" height="71" viewBox="0 0 70 71" fill="none" xmlns="http://www.w3.org/2000/svg">
<path d="M40.8342 37.3909L40.3039 37.9212L40.8342 38.4515L41.3646 37.9212L40.8342 37.3909ZM47.7491 30.476L48.2794 31.0064L48.2794 31.0064L47.7491 30.476ZM49.2584 28.7343L49.9304 29.0674L49.9305 29.0672L49.2584 28.7343ZM49.2584 25.9521L49.9305 25.6191L49.9304 25.619L49.2584 25.9521ZM47.7491 24.2103L48.2794 23.68L48.2794 23.6799L47.7491 24.2103ZM46.0072 22.7008L46.3403 22.0288L46.3402 22.0287L46.0072 22.7008ZM43.225 22.7008L43.558 23.3728L43.5581 23.3728L43.225 22.7008ZM41.4832 24.2103L42.0135 24.7406L42.0136 24.7405L41.4832 24.2103ZM34.5684 31.125L34.038 30.5947L33.5077 31.125L34.038 31.6553L34.5684 31.125ZM41.3646 37.9212L48.2794 31.0064L47.2187 29.9457L40.3039 36.8605L41.3646 37.9212ZM48.2794 31.0064C49.0906 30.1951 49.6336 29.6661 49.9304 29.0674L48.5865 28.4012C48.4265 28.7238 48.1155 29.0489 47.2187 29.9457L48.2794 31.0064ZM49.9305 29.0672C50.4687 27.9809 50.4687 26.7055 49.9305 25.6191L48.5864 26.2851C48.9167 26.9518 48.9167 27.7346 48.5864 28.4013L49.9305 29.0672ZM49.9304 25.619C49.6336 25.0203 49.0907 24.4913 48.2794 23.68L47.2187 24.7405C48.1155 25.6374 48.4265 25.9625 48.5865 26.2852L49.9304 25.619ZM48.2794 23.6799C47.4679 22.8686 46.9389 22.3255 46.3403 22.0288L45.6741 23.3727C45.9967 23.5326 46.3216 23.8436 47.2188 24.7406L48.2794 23.6799ZM46.3402 22.0287C45.2537 21.4904 43.9783 21.4904 42.892 22.0288L43.5581 23.3728C44.2246 23.0424 45.0073 23.0424 45.6743 23.3728L46.3402 22.0287ZM42.8921 22.0287C42.2931 22.3254 41.764 22.8686 40.9528 23.68L42.0136 24.7405C42.9104 23.8436 43.2353 23.5327 43.558 23.3728L42.8921 22.0287ZM40.9529 23.6799L34.038 30.5947L35.0987 31.6553L42.0135 24.7406L40.9529 23.6799ZM41.3646 36.8605L35.0987 30.5947L34.038 31.6553L40.3039 37.9212L41.3646 36.8605Z" fill="#6C6371"/>
<path d="M56.875 7.7915L56.5527 8.6628C56.1298 9.80529 55.9183 10.3765 55.5018 10.7932C55.085 11.21 54.5137 11.4214 53.3712 11.8441L52.5 12.1665L53.3712 12.4889C54.5137 12.9117 55.085 13.1231 55.5018 13.5398C55.9183 13.9565 56.1298 14.5277 56.5527 15.6702L56.875 16.5415L57.1973 15.6702C57.6202 14.5277 57.8317 13.9565 58.2482 13.5398C58.665 13.1231 59.2363 12.9117 60.3788 12.4889L61.25 12.1665L60.3788 11.8441C59.2363 11.4214 58.665 11.21 58.2482 10.7932C57.8317 10.3765 57.6202 9.80529 57.1973 8.6628L56.875 7.7915Z" stroke="#6C6371" stroke-width="1.2" stroke-linejoin="round"/>
<path d="M56.875 36.9585L56.5527 37.8297C56.1298 38.9722 55.9183 39.5435 55.5018 39.9603C55.085 40.3768 54.5137 40.5883 53.3712 41.0112L52.5 41.3335L53.3712 41.6558C54.5137 42.0787 55.085 42.2902 55.5018 42.7067C55.9183 43.1235 56.1298 43.6948 56.5527 44.8373L56.875 45.7085L57.1973 44.8373C57.6202 43.6948 57.8317 43.1235 58.2482 42.7067C58.665 42.2902 59.2363 42.0787 60.3788 41.6558L61.25 41.3335L60.3788 41.0112C59.2363 40.5883 58.665 40.3768 58.2482 39.9603C57.8317 39.5435 57.6202 38.9722 57.1973 37.8297L56.875 36.9585Z" stroke="#6C6371" stroke-width="1.2" stroke-linejoin="round"/>
<path d="M30.625 7.79199L30.3027 8.66329C29.8798 9.80578 29.6683 10.377 29.2518 10.7937C28.835 11.2104 28.2638 11.4218 27.1213 11.8446L26.25 12.167L27.1213 12.4894C28.2638 12.9121 28.835 13.1235 29.2518 13.5402C29.6683 13.957 29.8798 14.5282 30.3027 15.6707L30.625 16.542L30.9473 15.6707C31.3702 14.5282 31.5817 13.957 31.9982 13.5402C32.415 13.1235 32.9863 12.9121 34.1288 12.4894L35 12.167L34.1288 11.8446C32.9863 11.4218 32.415 11.2104 31.9982 10.7937C31.5817 10.377 31.3702 9.80578 30.9473 8.66329L30.625 7.79199Z" stroke="#6C6371" stroke-linejoin="round"/>
<path d="M33.6445 31.2451L40.7478 38.3484L15.8805 63.2157C14.7089 64.3873 12.8094 64.3873 11.6378 63.2157L8.7772 60.3551C7.60563 59.1835 7.60563 57.284 8.7772 56.1124L33.6445 31.2451Z" fill="#6C6371"/>
</svg>
