<svg width="119" height="118" viewBox="0 0 119 118" fill="none" xmlns="http://www.w3.org/2000/svg">
<path d="M54.584 63.9165H79.1673M39.834 63.9165H39.8781M64.4173 83.5832H39.834M79.1673 83.5832H79.1231" stroke="#5E4B62" stroke-width="5" stroke-linecap="round" stroke-linejoin="round"/>
<path d="M89 9.8335V19.6668M30 9.8335V19.6668" stroke="#5E4B62" stroke-width="5" stroke-linecap="round" stroke-linejoin="round"/>
<path d="M12.791 60.1957C12.791 38.7725 12.791 28.0608 18.9473 21.4054C25.1035 14.75 35.0118 14.75 54.8285 14.75H64.1702C83.9868 14.75 93.8954 14.75 100.052 21.4054C106.208 28.0608 106.208 38.7725 106.208 60.1957V62.7209C106.208 84.1443 106.208 94.8558 100.052 101.511C93.8954 108.167 83.9868 108.167 64.1702 108.167H54.8285C35.0118 108.167 25.1035 108.167 18.9473 101.511C12.791 94.8558 12.791 84.1443 12.791 62.7209V60.1957Z" stroke="#5E4B62" stroke-width="5" stroke-linecap="round" stroke-linejoin="round"/>
<path d="M15.25 39.3335H103.75" stroke="#5E4B62" stroke-width="5" stroke-linecap="round" stroke-linejoin="round"/>
</svg>
