<svg width="70" height="87" viewBox="0 0 70 87" fill="none" xmlns="http://www.w3.org/2000/svg">
<path d="M49.5827 36.9163V48.583C49.5827 56.6371 43.0534 63.1663 34.9993 63.1663C26.9452 63.1663 20.416 56.6371 20.416 48.583V36.9163C20.416 28.8622 26.9452 22.333 34.9993 22.333C43.0534 22.333 49.5827 28.8622 49.5827 36.9163Z" stroke="#6C6371" stroke-width="1.5"/>
<path d="M58.3327 48.583C58.3327 61.4697 47.8861 71.9163 34.9993 71.9163M34.9993 71.9163C22.1127 71.9163 11.666 61.4697 11.666 48.583M34.9993 71.9163V80.6663M34.9993 80.6663H43.7493M34.9993 80.6663H26.2493" stroke="#6C6371" stroke-width="1.5" stroke-linecap="round"/>
<path d="M52.0025 9.00183C52.0025 10.3829 50.8827 11.5024 49.5013 11.5024C48.1198 11.5024 47 10.3829 47 9.00183C47 7.62078 48.1198 6.50122 49.5013 6.50122C50.8827 6.50122 52.0025 7.62078 52.0025 9.00183ZM52.0025 9.00183V1.5C52.336 2.00012 52.6028 4.10063 55.004 4.50073" stroke="#6C6371" stroke-width="1.50056" stroke-linecap="round" stroke-linejoin="round"/>
<path d="M55.4973 21.5046C56.8787 21.5046 57.9986 20.3851 57.9986 19.004C57.9986 17.623 56.8787 16.5034 55.4973 16.5034C54.1159 16.5034 52.9961 17.623 52.9961 19.004C52.9961 20.3851 54.1159 21.5046 55.4973 21.5046Z" stroke="#6C6371" stroke-width="1.50056"/>
<path d="M64.9971 19.5049C66.1022 19.5049 66.9981 18.6092 66.9981 17.5044C66.9981 16.3996 66.1022 15.5039 64.9971 15.5039C63.892 15.5039 62.9961 16.3996 62.9961 17.5044C62.9961 18.6092 63.892 19.5049 64.9971 19.5049Z" stroke="#6C6371" stroke-width="1.50056"/>
<path d="M57.9961 19.0046V10.5025C57.9961 9.59227 57.9961 9.13718 58.2428 8.85457C58.4895 8.57195 58.9904 8.50364 59.992 8.36701C63.0071 7.95572 65.201 6.69954 66.3699 5.93075C66.6502 5.74642 66.7903 5.65426 66.8954 5.71094C67.0006 5.76761 67.0006 5.93317 67.0006 6.26429V17.4301" stroke="#6C6371" stroke-width="1.50056" stroke-linecap="round" stroke-linejoin="round"/>
<path d="M57.9961 12.5027C62.7985 12.5027 66.0001 10.1688 67.0006 9.50195" stroke="#6C6371" stroke-width="1.50056" stroke-linecap="round" stroke-linejoin="round"/>
<path d="M49.584 36.917H40.834M49.584 48.5837H40.834" stroke="#807884" stroke-width="1.5" stroke-linecap="round"/>
<ellipse cx="55.5" cy="19" rx="2.5" ry="2" fill="#6C6371"/>
<circle cx="65" cy="17" r="2" fill="#6C6371"/>
<ellipse cx="49.5" cy="9" rx="2.5" ry="2" fill="#6C6371"/>
<path d="M58.5 7.99976C62 7.99976 63.5 7.49976 66.5006 5.4997L66.5 9.99976C63.9919 11.409 61.9706 11.9487 58.6986 12.2843L58.5 7.99976Z" fill="#6C6371"/>
</svg>
