<svg width="119" height="118" viewBox="0 0 119 118" fill="none" xmlns="http://www.w3.org/2000/svg">
<path d="M39.834 103.25C39.834 96.2969 39.834 92.8203 41.9941 90.6599C44.1542 88.5 47.6308 88.5 54.584 88.5H64.4173C71.3705 88.5 74.847 88.5 77.0074 90.6599C79.1673 92.8203 79.1673 96.2969 79.1673 103.25V108.167H39.834V103.25Z" stroke="#5E4B62" stroke-width="5" stroke-linecap="round" stroke-linejoin="round"/>
<path d="M59.5 63.9165V88.4998" stroke="#5E4B62" stroke-width="5" stroke-linecap="round" stroke-linejoin="round"/>
<path d="M30 108.167H89" stroke="#5E4B62" stroke-width="5" stroke-linecap="round" stroke-linejoin="round"/>
<path d="M64.5966 14.0938L69.7881 24.5625C70.4956 26.0198 72.3836 27.4176 73.9766 27.6852L83.3862 29.2615C89.4032 30.2727 90.8192 34.6743 86.4832 39.0164L79.1681 46.392C77.9291 47.6411 77.2506 50.0499 77.6341 51.7751L79.7282 60.9054C81.3802 68.1324 77.5751 70.928 71.2331 67.151L62.4136 61.8868C60.8211 60.9349 58.1956 60.9349 56.5736 61.8868L47.7539 67.151C41.4416 70.928 37.607 68.1024 39.2588 60.9054L41.3531 51.7751C41.7366 50.0499 41.0581 47.6411 39.8193 46.392L32.5041 39.0164C28.1976 34.6743 29.5839 30.2727 35.6012 29.2615L45.0107 27.6852C46.574 27.4176 48.4618 26.0198 49.1697 24.5625L54.3611 14.0938C57.1926 8.41338 61.7941 8.41338 64.5966 14.0938Z" stroke="#5E4B62" stroke-width="5" stroke-linecap="round" stroke-linejoin="round"/>
</svg>
