<svg width="119" height="118" viewBox="0 0 119 118" fill="none" xmlns="http://www.w3.org/2000/svg">
<path d="M61.9668 93.418V108.168" stroke="#5E4B62" stroke-width="5" stroke-linecap="round" stroke-linejoin="round"/>
<path d="M52.125 108.168H71.7917" stroke="#5E4B62" stroke-width="5" stroke-linecap="round" stroke-linejoin="round"/>
<path d="M66.8763 78.6698C47.8685 78.6698 32.4596 63.2609 32.4596 44.2531C32.4596 25.2453 47.8685 9.83643 66.8763 9.83643C85.8841 9.83643 101.293 25.2453 101.293 44.2531C101.293 63.2609 85.8841 78.6698 66.8763 78.6698Z" stroke="#5E4B62" stroke-width="5" stroke-linecap="round"/>
<path d="M42.293 19.6698C45.51 19.859 47.1721 21.4348 50.0293 24.4537C55.1899 29.9066 60.3504 30.3615 63.7906 28.5439C68.9511 25.8176 64.6146 21.4015 70.6715 19.0015C74.6191 17.4373 75.1697 13.181 72.9725 9.83643" stroke="#5E4B62" stroke-width="5" stroke-linejoin="round"/>
<path d="M98.8346 49.168C91.4596 49.168 90.1508 55.2981 84.0846 54.0846C71.7929 51.6263 68.3099 54.3742 68.3099 60.2359C68.3099 66.097 68.3099 66.097 65.7538 70.493C64.091 73.3526 63.5098 76.2116 66.8241 78.668" stroke="#5E4B62" stroke-width="5" stroke-linejoin="round"/>
<path d="M32.4668 9.83643C23.3643 18.6862 17.7168 31.0184 17.7168 44.6588C17.7168 71.5888 39.7294 93.4197 66.8835 93.4197C80.2838 93.4197 92.4314 88.1034 101.3 79.481" stroke="#5E4B62" stroke-width="5" stroke-linecap="round"/>
</svg>
