<svg width="70" height="71" viewBox="0 0 70 71" fill="none" xmlns="http://www.w3.org/2000/svg">
<path d="M33.5417 64.6668C21.8548 64.6668 16.0113 64.6668 12.3807 60.3954C8.75 56.1242 8.75 49.2493 8.75 35.5002C8.75 21.7509 8.75 14.8762 12.3807 10.6049C16.0113 6.3335 21.8548 6.3335 33.5417 6.3335C45.2285 6.3335 51.072 6.3335 54.7027 10.6049C57.6252 14.0432 58.1954 19.1684 58.3065 28.2085" stroke="#6C6371" stroke-width="1.5" stroke-linecap="round" stroke-linejoin="round"/>
<path d="M23.334 23.833H43.7506M23.334 38.4163H32.084" stroke="#6C6371" stroke-width="1.5" stroke-linecap="round" stroke-linejoin="round"/>
<path d="M57.1941 53.3074C59.6526 51.5177 61.2507 48.6174 61.2507 45.3438C61.2507 39.9071 56.8436 35.5 51.4069 35.5H50.6777C45.2411 35.5 40.834 39.9071 40.834 45.3438C40.834 48.6174 42.432 51.5177 44.8905 53.3074M57.1941 53.3074C55.5699 54.4898 53.5699 55.1875 51.4069 55.1875H50.6777C48.5147 55.1875 46.5148 54.4898 44.8905 53.3074M57.1941 53.3074L58.894 58.6595C59.5424 60.7009 59.8667 61.7217 59.778 62.3573C59.5934 63.68 58.5145 64.662 57.2408 64.6667C56.6289 64.669 55.7119 64.1877 53.8782 63.2255C53.0919 62.8128 52.6987 62.6063 52.2965 62.485C51.4769 62.238 50.6077 62.238 49.7881 62.485C49.3859 62.6063 48.9928 62.8128 48.2064 63.2255C46.3727 64.1877 45.4557 64.669 44.8438 64.6667C43.5701 64.662 42.4912 63.68 42.3066 62.3573C42.2179 61.7217 42.5423 60.7009 43.1906 58.6595L44.8905 53.3074" fill="#6C6371"/>
<path d="M57.1941 53.3074C59.6526 51.5178 61.2506 48.6174 61.2506 45.3438C61.2506 39.9071 56.8436 35.5 51.4069 35.5H50.6777C45.2411 35.5 40.834 39.9071 40.834 45.3438C40.834 48.6174 42.432 51.5178 44.8905 53.3074M57.1941 53.3074C55.5699 54.4898 53.5699 55.1875 51.4069 55.1875H50.6777C48.5147 55.1875 46.5148 54.4898 44.8905 53.3074M57.1941 53.3074L58.894 58.6595C59.5424 60.7009 59.8667 61.7217 59.778 62.3573C59.5934 63.68 58.5145 64.662 57.2408 64.6667C56.6289 64.669 55.7119 64.1877 53.8782 63.2255C53.0919 62.8128 52.6987 62.6063 52.2965 62.485C51.4769 62.238 50.6077 62.238 49.7881 62.485C49.3859 62.6063 48.9928 62.8128 48.2064 63.2255C46.3727 64.1877 45.4557 64.669 44.8438 64.6667C43.5701 64.662 42.4912 63.68 42.3066 62.3573C42.2179 61.7217 42.5423 60.7009 43.1906 58.6595L44.8905 53.3074" stroke="#6C6371"/>
</svg>
