<svg width="1438" height="956" viewBox="0 0 1438 956" fill="none" xmlns="http://www.w3.org/2000/svg">
<ellipse opacity="0.5" cx="561.721" cy="780.237" rx="1.01598" ry="1.00914" fill="#D9D9D9" fill-opacity="0.5"/>
<ellipse cx="1100.32" cy="261.773" rx="1.01598" ry="1.00914" fill="#D9D9D9" fill-opacity="0.5"/>
<ellipse cx="1306.59" cy="770.972" rx="1.01598" ry="1.00914" fill="#D9D9D9" fill-opacity="0.5"/>
<ellipse opacity="0.5" cx="664.604" cy="602.598" rx="1.01598" ry="1.00914" fill="#D9D9D9" fill-opacity="0.5"/>
<ellipse cx="461.764" cy="133.864" rx="1.01598" ry="1.00914" fill="#D9D9D9" fill-opacity="0.5"/>
<ellipse cx="217.703" cy="163.302" rx="1.01598" ry="1.00914" fill="#D9D9D9" fill-opacity="0.5"/>
<ellipse opacity="0.5" cx="678.161" cy="770.642" rx="1.01598" ry="1.00914" fill="#D9D9D9" fill-opacity="0.5"/>
<ellipse opacity="0.5" cx="716.52" cy="577.669" rx="1.01598" ry="1.00914" fill="#D9D9D9" fill-opacity="0.5"/>
<ellipse cx="832.932" cy="429.971" rx="1.01598" ry="1.00914" fill="#D9D9D9" fill-opacity="0.5"/>
<ellipse cx="609.832" cy="660.178" rx="1.01598" ry="1.00914" fill="#D9D9D9" fill-opacity="0.5"/>
<ellipse opacity="0.5" cx="1337.26" cy="467.586" rx="1.01598" ry="1.00914" fill="#D9D9D9" fill-opacity="0.5"/>
<ellipse cx="988.401" cy="862.808" rx="1.01598" ry="1.00914" fill="#D9D9D9" fill-opacity="0.5"/>
<ellipse opacity="0.5" cx="10.6195" cy="836.541" rx="1.01598" ry="1.00914" fill="#D9D9D9" fill-opacity="0.5"/>
<ellipse cx="65.1722" cy="36.2049" rx="1.01598" ry="1.00914" fill="#D9D9D9" fill-opacity="0.5"/>
<ellipse opacity="0.5" cx="164.334" cy="747.369" rx="1.01598" ry="1.00914" fill="#D9D9D9" fill-opacity="0.5"/>
<ellipse opacity="0.5" cx="207.762" cy="722.403" rx="1.01598" ry="1.00914" fill="#D9D9D9" fill-opacity="0.5"/>
<ellipse opacity="0.5" cx="706.705" cy="393.075" rx="1.01598" ry="1.00914" fill="#D9D9D9" fill-opacity="0.5"/>
<ellipse opacity="0.5" cx="59.2933" cy="763.006" rx="1.01598" ry="1.00914" fill="#D9D9D9" fill-opacity="0.5"/>
<ellipse opacity="0.5" cx="1383.09" cy="417.564" rx="1.01598" ry="1.00914" fill="#D9D9D9" fill-opacity="0.5"/>
<ellipse cx="835.266" cy="610.932" rx="1.01598" ry="1.00914" fill="#D9D9D9" fill-opacity="0.5"/>
<ellipse opacity="0.5" cx="473.106" cy="897.095" rx="1.01598" ry="1.00914" fill="#D9D9D9" fill-opacity="0.5"/>
<ellipse cx="1252.11" cy="512.61" rx="1.01598" ry="1.00914" fill="#D9D9D9" fill-opacity="0.5"/>
<ellipse opacity="0.5" cx="449.901" cy="184.004" rx="1.01598" ry="1.00914" fill="#D9D9D9" fill-opacity="0.5"/>
<ellipse opacity="0.5" cx="1001.26" cy="110.895" rx="1.01598" ry="1.00914" fill="#D9D9D9" fill-opacity="0.5"/>
<ellipse opacity="0.5" cx="390.69" cy="645.119" rx="1.01598" ry="1.00914" fill="#D9D9D9" fill-opacity="0.5"/>
<ellipse opacity="0.5" cx="703.399" cy="420.876" rx="1.01598" ry="1.00914" fill="#D9D9D9" fill-opacity="0.5"/>
<ellipse cx="340.422" cy="334.508" rx="1.01598" ry="1.00914" fill="#D9D9D9" fill-opacity="0.5"/>
<ellipse opacity="0.5" cx="415.528" cy="43.5316" rx="1.01598" ry="1.00914" fill="#D9D9D9" fill-opacity="0.5"/>
<ellipse cx="268.995" cy="340.088" rx="1.01598" ry="1.00914" fill="#D9D9D9" fill-opacity="0.5"/>
<ellipse cx="1039.07" cy="485.299" rx="1.01598" ry="1.00914" fill="#D9D9D9" fill-opacity="0.5"/>
<ellipse opacity="0.5" cx="1230.04" cy="489.883" rx="1.01598" ry="1.00914" fill="#D9D9D9" fill-opacity="0.5"/>
<ellipse cx="1431.91" cy="834.843" rx="1.01598" ry="1.00914" fill="#D9D9D9" fill-opacity="0.5"/>
<ellipse cx="180.457" cy="94.6263" rx="1.01598" ry="1.00914" fill="#D9D9D9" fill-opacity="0.5"/>
<ellipse opacity="0.5" cx="632.932" cy="826.218" rx="1.01598" ry="1.00914" fill="#D9D9D9" fill-opacity="0.5"/>
<ellipse opacity="0.5" cx="1.01598" cy="875.071" rx="1.01598" ry="1.00914" fill="#D9D9D9" fill-opacity="0.5"/>
<ellipse opacity="0.5" cx="1295.74" cy="540.915" rx="1.01598" ry="1.00914" fill="#D9D9D9" fill-opacity="0.5"/>
<ellipse opacity="0.5" cx="636.209" cy="892.268" rx="1.01598" ry="1.00914" fill="#D9D9D9" fill-opacity="0.5"/>
<ellipse cx="910.469" cy="347.977" rx="1.01598" ry="1.00914" fill="#D9D9D9" fill-opacity="0.5"/>
<ellipse opacity="0.5" cx="1297.03" cy="865.575" rx="1.01598" ry="1.00914" fill="#D9D9D9" fill-opacity="0.5"/>
<ellipse opacity="0.5" cx="365.274" cy="171.897" rx="1.01598" ry="1.00914" fill="#D9D9D9" fill-opacity="0.5"/>
<ellipse opacity="0.5" cx="941.483" cy="564.042" rx="1.01598" ry="1.00914" fill="#D9D9D9" fill-opacity="0.5"/>
<rect x="1398.08" y="860.433" width="2.03196" height="2.01827" fill="#D9D9D9" fill-opacity="0.5"/>
<rect x="868.676" y="626.722" width="2.03196" height="2.01827" fill="#D9D9D9" fill-opacity="0.5"/>
<rect x="537.168" y="820.667" width="2.03196" height="2.01827" fill="#D9D9D9" fill-opacity="0.5"/>
<rect opacity="0.5" x="839.24" y="178.351" width="2.03196" height="2.01827" fill="#D9D9D9" fill-opacity="0.5"/>
<rect x="608.311" y="931.313" width="2.03196" height="2.01827" fill="#D9D9D9" fill-opacity="0.5"/>
<rect x="1014.48" y="937.46" width="2.03196" height="2.01827" fill="#D9D9D9" fill-opacity="0.5"/>
<rect x="810.137" y="165.674" width="2.03196" height="2.01827" fill="#D9D9D9" fill-opacity="0.5"/>
<rect opacity="0.5" x="47.707" y="842.97" width="2.03196" height="2.01827" fill="#D9D9D9" fill-opacity="0.5"/>
<rect x="1435.84" y="658.084" width="2.03196" height="2.01827" fill="#D9D9D9" fill-opacity="0.5"/>
<rect x="292.07" y="901.761" width="2.03196" height="2.01827" fill="#D9D9D9" fill-opacity="0.5"/>
<rect opacity="0.5" x="1064.56" y="517.112" width="2.03196" height="2.01827" fill="#D9D9D9" fill-opacity="0.5"/>
<rect opacity="0.5" x="208.24" y="40.4058" width="2.03196" height="2.01827" fill="#D9D9D9" fill-opacity="0.5"/>
<rect x="835.094" y="659.595" width="2.03196" height="2.01827" fill="#D9D9D9" fill-opacity="0.5"/>
<rect x="369.467" y="317.364" width="2.03196" height="2.01827" fill="#D9D9D9" fill-opacity="0.5"/>
<rect x="1193.78" y="552.594" width="2.03196" height="2.01827" fill="#D9D9D9" fill-opacity="0.5"/>
<rect x="367.014" y="850.922" width="2.03196" height="2.01827" fill="#D9D9D9" fill-opacity="0.5"/>
<rect opacity="0.5" x="1225.23" y="294.216" width="2.03196" height="2.01827" fill="#D9D9D9" fill-opacity="0.5"/>
<rect opacity="0.5" x="1155.48" y="858.056" width="2.03196" height="2.01827" fill="#D9D9D9" fill-opacity="0.5"/>
<rect x="1154.64" y="649.185" width="2.03196" height="2.01827" fill="#D9D9D9" fill-opacity="0.5"/>
<rect opacity="0.5" x="1244.24" y="22.8169" width="2.03196" height="2.01827" fill="#D9D9D9" fill-opacity="0.5"/>
<rect opacity="0.5" x="736.301" y="706.454" width="2.03196" height="2.01827" fill="#D9D9D9" fill-opacity="0.5"/>
<rect x="133.064" y="912.621" width="2.03196" height="2.01827" fill="#D9D9D9" fill-opacity="0.5"/>
<rect x="218.441" y="811.722" width="2.03196" height="2.01827" fill="#D9D9D9" fill-opacity="0.5"/>
<rect opacity="0.5" x="1257.73" y="509.142" width="2.03196" height="2.01827" fill="#D9D9D9" fill-opacity="0.5"/>
<rect x="905.062" y="387.37" width="2.03196" height="2.01827" fill="#D9D9D9" fill-opacity="0.5"/>
<rect x="30.0801" y="600.36" width="2.03196" height="2.01827" fill="#D9D9D9" fill-opacity="0.5"/>
<rect opacity="0.5" x="828.777" y="363.973" width="2.03196" height="2.01827" fill="#D9D9D9" fill-opacity="0.5"/>
<rect opacity="0.5" x="372.887" y="865.259" width="2.03196" height="2.01827" fill="#D9D9D9" fill-opacity="0.5"/>
<rect x="44.418" y="668.971" width="2.03196" height="2.01827" fill="#D9D9D9" fill-opacity="0.5"/>
<rect x="499.02" y="628.441" width="2.03196" height="2.01827" fill="#D9D9D9" fill-opacity="0.5"/>
<rect opacity="0.5" x="329.219" y="868.641" width="2.03196" height="2.01827" fill="#D9D9D9" fill-opacity="0.5"/>
<rect opacity="0.5" x="924.094" y="631.045" width="2.03196" height="2.01827" fill="#D9D9D9" fill-opacity="0.5"/>
<rect x="430.004" y="596.701" width="2.03196" height="2.01827" fill="#D9D9D9" fill-opacity="0.5"/>
<rect opacity="0.5" x="919.555" y="158.976" width="2.03196" height="2.01827" fill="#D9D9D9" fill-opacity="0.5"/>
<rect x="224.16" width="2.03196" height="2.01827" fill="#D9D9D9" fill-opacity="0.5"/>
<rect x="1068.48" y="923.103" width="2.03196" height="2.01827" fill="#D9D9D9" fill-opacity="0.5"/>
<rect opacity="0.5" x="455.131" y="279.657" width="2.03196" height="2.01827" fill="#D9D9D9" fill-opacity="0.5"/>
<rect x="596.793" y="163.246" width="2.03196" height="2.01827" fill="#D9D9D9" fill-opacity="0.5"/>
<rect opacity="0.5" x="1011.6" y="877.494" width="2.03196" height="2.01827" fill="#D9D9D9" fill-opacity="0.5"/>
<rect x="442.191" y="724.465" width="2.03196" height="2.01827" fill="#D9D9D9" fill-opacity="0.5"/>
<rect opacity="0.5" x="152.727" y="492.544" width="2.03196" height="2.01827" fill="#D9D9D9" fill-opacity="0.5"/>
<rect x="759.438" y="59.0332" width="2.03196" height="2.01827" fill="#D9D9D9" fill-opacity="0.5"/>
<rect x="512.838" y="563.977" width="2.03196" height="2.01827" fill="#D9D9D9" fill-opacity="0.5"/>
<rect x="642.742" y="184.252" width="2.03196" height="2.01827" fill="#D9D9D9" fill-opacity="0.5"/>
<rect x="273.172" y="542.418" width="2.03196" height="2.01827" fill="#D9D9D9" fill-opacity="0.5"/>
<rect x="276.621" y="10.7793" width="2.03196" height="2.01827" fill="#D9D9D9" fill-opacity="0.5"/>
<rect x="1369.58" y="877.821" width="2.03196" height="2.01827" fill="#D9D9D9" fill-opacity="0.5"/>
<path opacity="0.5" d="M402.811 898.339L403.085 899.075L403.827 899.348L403.085 899.621L402.811 900.357L402.536 899.621L401.795 899.348L402.536 899.075L402.811 898.339Z" fill="#D9D9D9" fill-opacity="0.5"/>
<path opacity="0.5" d="M252.909 549.532L253.183 550.268L253.925 550.541L253.183 550.813L252.909 551.55L252.634 550.813L251.893 550.541L252.634 550.268L252.909 549.532Z" fill="#D9D9D9" fill-opacity="0.5"/>
<path opacity="0.5" d="M744.424 844.34L744.699 845.077L745.44 845.349L744.699 845.622L744.424 846.359L744.15 845.622L743.408 845.349L744.15 845.077L744.424 844.34Z" fill="#D9D9D9" fill-opacity="0.5"/>
<path opacity="0.5" d="M417.368 520.052L417.642 520.788L418.384 521.061L417.642 521.333L417.368 522.07L417.093 521.333L416.352 521.061L417.093 520.788L417.368 520.052Z" fill="#D9D9D9" fill-opacity="0.5"/>
<path d="M242.836 647.311L243.111 648.047L243.852 648.32L243.111 648.592L242.836 649.329L242.562 648.592L241.82 648.32L242.562 648.047L242.836 647.311Z" fill="#D9D9D9" fill-opacity="0.5"/>
<path d="M378.955 131.645L379.23 132.381L379.971 132.654L379.23 132.926L378.955 133.663L378.681 132.926L377.939 132.654L378.681 132.381L378.955 131.645Z" fill="#D9D9D9" fill-opacity="0.5"/>
<path d="M1038.71 179.909L1038.98 180.646L1039.73 180.918L1038.98 181.191L1038.71 181.927L1038.43 181.191L1037.69 180.918L1038.43 180.646L1038.71 179.909Z" fill="#D9D9D9" fill-opacity="0.5"/>
<path d="M1252.02 298.962L1252.3 299.698L1253.04 299.971L1252.3 300.244L1252.02 300.98L1251.75 300.244L1251.01 299.971L1251.75 299.698L1252.02 298.962Z" fill="#D9D9D9" fill-opacity="0.5"/>
<path opacity="0.5" d="M1137.9 66.9971L1138.17 67.7336L1138.91 68.0062L1138.17 68.2788L1137.9 69.0153L1137.62 68.2788L1136.88 68.0062L1137.62 67.7336L1137.9 66.9971Z" fill="#D9D9D9" fill-opacity="0.5"/>
<path d="M658.717 832.659L658.992 833.395L659.733 833.668L658.992 833.94L658.717 834.677L658.443 833.94L657.701 833.668L658.443 833.395L658.717 832.659Z" fill="#D9D9D9" fill-opacity="0.5"/>
<path opacity="0.5" d="M1149.08 953.979L1149.35 954.716L1150.09 954.989L1149.35 955.261L1149.08 955.998L1148.8 955.261L1148.06 954.989L1148.8 954.716L1149.08 953.979Z" fill="#D9D9D9" fill-opacity="0.5"/>
<path d="M162.043 69.6963L162.318 70.4329L163.059 70.7054L162.318 70.978L162.043 71.7146L161.769 70.978L161.027 70.7054L161.769 70.4329L162.043 69.6963Z" fill="#D9D9D9" fill-opacity="0.5"/>
<path opacity="0.5" d="M820.801 636.97L821.076 637.707L821.817 637.979L821.076 638.252L820.801 638.988L820.527 638.252L819.785 637.979L820.527 637.707L820.801 636.97Z" fill="#D9D9D9" fill-opacity="0.5"/>
<path opacity="0.5" d="M926.358 463.779L926.632 464.516L927.374 464.788L926.632 465.061L926.358 465.798L926.083 465.061L925.342 464.788L926.083 464.516L926.358 463.779Z" fill="#D9D9D9" fill-opacity="0.5"/>
<path opacity="0.5" d="M961.875 913.438L962.15 914.174L962.891 914.447L962.15 914.719L961.875 915.456L961.601 914.719L960.859 914.447L961.601 914.174L961.875 913.438Z" fill="#D9D9D9" fill-opacity="0.5"/>
<path opacity="0.5" d="M14.2132 509.511L14.4877 510.248L15.2292 510.52L14.4877 510.793L14.2132 511.53L13.9388 510.793L13.1973 510.52L13.9388 510.248L14.2132 509.511Z" fill="#D9D9D9" fill-opacity="0.5"/>
<path opacity="0.5" d="M1029.71 288.899L1029.98 289.636L1030.73 289.908L1029.98 290.181L1029.71 290.917L1029.43 290.181L1028.69 289.908L1029.43 289.636L1029.71 288.899Z" fill="#D9D9D9" fill-opacity="0.5"/>
<path d="M1324.03 1.75684L1324.31 2.49341L1325.05 2.76597L1324.31 3.03853L1324.03 3.77511L1323.76 3.03853L1323.02 2.76597L1323.76 2.49341L1324.03 1.75684Z" fill="#D9D9D9" fill-opacity="0.5"/>
<path d="M181.93 302.356L182.204 303.093L182.946 303.366L182.204 303.638L181.93 304.375L181.656 303.638L180.914 303.366L181.656 303.093L181.93 302.356Z" fill="#D9D9D9" fill-opacity="0.5"/>
<path d="M904.465 918.522L904.74 919.259L905.481 919.532L904.74 919.804L904.465 920.541L904.191 919.804L903.449 919.532L904.191 919.259L904.465 918.522Z" fill="#D9D9D9" fill-opacity="0.5"/>
<path opacity="0.5" d="M824.95 728.839L825.224 729.575L825.966 729.848L825.224 730.121L824.95 730.857L824.675 730.121L823.934 729.848L824.675 729.575L824.95 728.839Z" fill="#D9D9D9" fill-opacity="0.5"/>
<path d="M207.959 908.49L208.234 909.227L208.975 909.499L208.234 909.772L207.959 910.509L207.685 909.772L206.943 909.499L207.685 909.227L207.959 908.49Z" fill="#D9D9D9" fill-opacity="0.5"/>
<path opacity="0.5" d="M105.6 590.32L105.874 591.056L106.616 591.329L105.874 591.602L105.6 592.338L105.326 591.602L104.584 591.329L105.326 591.056L105.6 590.32Z" fill="#D9D9D9" fill-opacity="0.5"/>
<path d="M1385.55 666.773L1385.82 667.51L1386.56 667.783L1385.82 668.055L1385.55 668.792L1385.27 668.055L1384.53 667.783L1385.27 667.51L1385.55 666.773Z" fill="#D9D9D9" fill-opacity="0.5"/>
<path d="M1049.29 622.817L1049.56 623.553L1050.3 623.826L1049.56 624.099L1049.29 624.835L1049.01 624.099L1048.27 623.826L1049.01 623.553L1049.29 622.817Z" fill="#D9D9D9" fill-opacity="0.5"/>
<path d="M783.602 932.247L783.876 932.983L784.618 933.256L783.876 933.528L783.602 934.265L783.328 933.528L782.586 933.256L783.328 932.983L783.602 932.247Z" fill="#D9D9D9" fill-opacity="0.5"/>
<path d="M310.424 398.734L310.699 399.47L311.44 399.743L310.699 400.016L310.424 400.752L310.15 400.016L309.408 399.743L310.15 399.47L310.424 398.734Z" fill="#D9D9D9" fill-opacity="0.5"/>
<path opacity="0.5" d="M321.819 695.598L322.093 696.334L322.835 696.607L322.093 696.879L321.819 697.616L321.544 696.879L320.803 696.607L321.544 696.334L321.819 695.598Z" fill="#D9D9D9" fill-opacity="0.5"/>
<path opacity="0.5" d="M633.555 224.039L633.829 224.776L634.571 225.048L633.829 225.321L633.555 226.057L633.281 225.321L632.539 225.048L633.281 224.776L633.555 224.039Z" fill="#D9D9D9" fill-opacity="0.5"/>
<path opacity="0.5" d="M1259.78 460.322L1260.05 461.059L1260.8 461.331L1260.05 461.604L1259.78 462.341L1259.51 461.604L1258.76 461.331L1259.51 461.059L1259.78 460.322Z" fill="#D9D9D9" fill-opacity="0.5"/>
<path opacity="0.5" d="M1057.46 319.938L1057.74 320.674L1058.48 320.947L1057.74 321.219L1057.46 321.956L1057.19 321.219L1056.45 320.947L1057.19 320.674L1057.46 319.938Z" fill="#D9D9D9" fill-opacity="0.5"/>
<path opacity="0.5" d="M1185.26 510.994L1185.54 511.73L1186.28 512.003L1185.54 512.275L1185.26 513.012L1184.99 512.275L1184.25 512.003L1184.99 511.73L1185.26 510.994Z" fill="#D9D9D9" fill-opacity="0.5"/>
<path d="M698.625 761.487L698.9 762.224L699.641 762.496L698.9 762.769L698.625 763.506L698.351 762.769L697.609 762.496L698.351 762.224L698.625 761.487Z" fill="#D9D9D9" fill-opacity="0.5"/>
<path d="M395.944 498.423L396.218 499.159L396.96 499.432L396.218 499.705L395.944 500.441L395.669 499.705L394.928 499.432L395.669 499.159L395.944 498.423Z" fill="#D9D9D9" fill-opacity="0.5"/>
<path d="M917.203 641.317L917.478 642.054L918.219 642.327L917.478 642.599L917.203 643.336L916.929 642.599L916.188 642.327L916.929 642.054L917.203 641.317Z" fill="#D9D9D9" fill-opacity="0.5"/>
<path opacity="0.5" d="M296.436 953.553L296.71 954.289L297.452 954.562L296.71 954.834L296.436 955.571L296.161 954.834L295.42 954.562L296.161 954.289L296.436 953.553Z" fill="#D9D9D9" fill-opacity="0.5"/>
<path d="M937.827 376.445L938.101 377.181L938.843 377.454L938.101 377.727L937.827 378.463L937.552 377.727L936.811 377.454L937.552 377.181L937.827 376.445Z" fill="#D9D9D9" fill-opacity="0.5"/>
<path d="M41.514 325.979L41.7884 326.715L42.53 326.988L41.7884 327.26L41.514 327.997L41.2396 327.26L40.498 326.988L41.2396 326.715L41.514 325.979Z" fill="#D9D9D9" fill-opacity="0.5"/>
<path d="M262.36 561.639L262.634 562.375L263.376 562.648L262.634 562.92L262.36 563.657L262.085 562.92L261.344 562.648L262.085 562.375L262.36 561.639Z" fill="#D9D9D9" fill-opacity="0.5"/>
<path d="M1119.15 326.634L1119.43 327.371L1120.17 327.643L1119.43 327.916L1119.15 328.653L1118.88 327.916L1118.13 327.643L1118.88 327.371L1119.15 326.634Z" fill="#D9D9D9" fill-opacity="0.5"/>
<path opacity="0.5" d="M373.366 423.382L373.64 424.118L374.382 424.391L373.64 424.664L373.366 425.4L373.091 424.664L372.35 424.391L373.091 424.118L373.366 423.382Z" fill="#D9D9D9" fill-opacity="0.5"/>
<path opacity="0.5" d="M1100.89 427.201L1101.17 427.937L1101.91 428.21L1101.17 428.482L1100.89 429.219L1100.62 428.482L1099.88 428.21L1100.62 427.937L1100.89 427.201Z" fill="#D9D9D9" fill-opacity="0.5"/>
<path d="M213.729 626.796L214.003 627.532L214.745 627.805L214.003 628.078L213.729 628.814L213.454 628.078L212.713 627.805L213.454 627.532L213.729 626.796Z" fill="#D9D9D9" fill-opacity="0.5"/>
<path d="M602.358 480.29L602.632 481.027L603.374 481.299L602.632 481.572L602.358 482.308L602.083 481.572L601.342 481.299L602.083 481.027L602.358 480.29Z" fill="#D9D9D9" fill-opacity="0.5"/>
<path d="M613.844 11.4131L614.119 12.1497L614.86 12.4222L614.119 12.6948L613.844 13.4314L613.57 12.6948L612.828 12.4222L613.57 12.1497L613.844 11.4131Z" fill="#D9D9D9" fill-opacity="0.5"/>
<path opacity="0.5" d="M554.778 330.711L555.052 331.448L555.794 331.72L555.052 331.993L554.778 332.729L554.503 331.993L553.762 331.72L554.503 331.448L554.778 330.711Z" fill="#D9D9D9" fill-opacity="0.5"/>
<path opacity="0.5" d="M91.6156 260.255L91.89 260.991L92.6316 261.264L91.89 261.537L91.6156 262.273L91.3412 261.537L90.5996 261.264L91.3412 260.991L91.6156 260.255Z" fill="#D9D9D9" fill-opacity="0.5"/>
<path opacity="0.5" d="M195.938 191.176L196.212 191.912L196.954 192.185L196.212 192.457L195.938 193.194L195.663 192.457L194.922 192.185L195.663 191.912L195.938 191.176Z" fill="#D9D9D9" fill-opacity="0.5"/>
<path d="M1289.79 875.929L1290.06 876.666L1290.8 876.938L1290.06 877.211L1289.79 877.947L1289.51 877.211L1288.77 876.938L1289.51 876.666L1289.79 875.929Z" fill="#D9D9D9" fill-opacity="0.5"/>
<path d="M119.405 252.577L119.679 253.313L120.421 253.586L119.679 253.858L119.405 254.595L119.13 253.858L118.389 253.586L119.13 253.313L119.405 252.577Z" fill="#D9D9D9" fill-opacity="0.5"/>
<path d="M564.643 184.877L564.917 185.614L565.659 185.886L564.917 186.159L564.643 186.895L564.369 186.159L563.627 185.886L564.369 185.614L564.643 184.877Z" fill="#D9D9D9" fill-opacity="0.5"/>
<path opacity="0.5" d="M882.748 249.227L883.023 249.964L883.764 250.236L883.023 250.509L882.748 251.245L882.474 250.509L881.732 250.236L882.474 249.964L882.748 249.227Z" fill="#D9D9D9" fill-opacity="0.5"/>
<path d="M384.297 213.854L384.572 214.59L385.313 214.863L384.572 215.135L384.297 215.872L384.023 215.135L383.281 214.863L384.023 214.59L384.297 213.854Z" fill="#D9D9D9" fill-opacity="0.5"/>
<path d="M643.844 711.47L644.119 712.206L644.86 712.479L644.119 712.751L643.844 713.488L643.57 712.751L642.828 712.479L643.57 712.206L643.844 711.47Z" fill="#D9D9D9" fill-opacity="0.5"/>
<path opacity="0.5" d="M1351.51 277.201L1351.79 277.937L1352.53 278.21L1351.79 278.482L1351.51 279.219L1351.24 278.482L1350.5 278.21L1351.24 277.937L1351.51 277.201Z" fill="#D9D9D9" fill-opacity="0.5"/>
<path d="M1435.61 442.757L1435.88 443.494L1436.62 443.766L1435.88 444.039L1435.61 444.776L1435.33 444.039L1434.59 443.766L1435.33 443.494L1435.61 442.757Z" fill="#D9D9D9" fill-opacity="0.5"/>
<path d="M305.096 532.239L305.37 532.976L306.112 533.248L305.37 533.521L305.096 534.258L304.822 533.521L304.08 533.248L304.822 532.976L305.096 532.239Z" fill="#D9D9D9" fill-opacity="0.5"/>
<path d="M1315.07 63.5366L1315.34 64.2732L1316.08 64.5458L1315.34 64.8183L1315.07 65.5549L1314.79 64.8183L1314.05 64.5458L1314.79 64.2732L1315.07 63.5366Z" fill="#D9D9D9" fill-opacity="0.5"/>
<path d="M480.116 824.829L480.39 825.566L481.132 825.838L480.39 826.111L480.116 826.847L479.841 826.111L479.1 825.838L479.841 825.566L480.116 824.829Z" fill="#D9D9D9" fill-opacity="0.5"/>
<path opacity="0.5" d="M742.7 200.913L742.974 201.649L743.716 201.922L742.974 202.194L742.7 202.931L742.425 202.194L741.684 201.922L742.425 201.649L742.7 200.913Z" fill="#D9D9D9" fill-opacity="0.5"/>
<path opacity="0.5" d="M828.969 461.17L829.244 461.907L829.985 462.18L829.244 462.452L828.969 463.189L828.695 462.452L827.953 462.18L828.695 461.907L828.969 461.17Z" fill="#D9D9D9" fill-opacity="0.5"/>
<path opacity="0.5" d="M1419.77 213.596L1420.05 214.333L1420.79 214.605L1420.05 214.878L1419.77 215.614L1419.5 214.878L1418.76 214.605L1419.5 214.333L1419.77 213.596Z" fill="#D9D9D9" fill-opacity="0.5"/>
<path opacity="0.5" d="M168.639 345.019L168.913 345.756L169.655 346.028L168.913 346.301L168.639 347.037L168.365 346.301L167.623 346.028L168.365 345.756L168.639 345.019Z" fill="#D9D9D9" fill-opacity="0.5"/>
<path opacity="0.5" d="M1248.56 751.66L1248.83 752.396L1249.57 752.669L1248.83 752.941L1248.56 753.678L1248.28 752.941L1247.54 752.669L1248.28 752.396L1248.56 751.66Z" fill="#D9D9D9" fill-opacity="0.5"/>
<path d="M1051.46 619.522L1051.73 620.259L1052.47 620.531L1051.73 620.804L1051.46 621.54L1051.18 620.804L1050.44 620.531L1051.18 620.259L1051.46 619.522Z" fill="#D9D9D9" fill-opacity="0.5"/>
<path d="M756.084 309.138L756.359 309.874L757.1 310.147L756.359 310.419L756.084 311.156L755.81 310.419L755.068 310.147L755.81 309.874L756.084 309.138Z" fill="#D9D9D9" fill-opacity="0.5"/>
<path opacity="0.5" d="M159.139 98.9473L159.413 99.6838L160.155 99.9564L159.413 100.229L159.139 100.966L158.865 100.229L158.123 99.9564L158.865 99.6838L159.139 98.9473Z" fill="#D9D9D9" fill-opacity="0.5"/>
<path d="M1052.83 902.009L1053.11 902.745L1053.85 903.018L1053.11 903.29L1052.83 904.027L1052.56 903.29L1051.82 903.018L1052.56 902.745L1052.83 902.009Z" fill="#D9D9D9" fill-opacity="0.5"/>
<path d="M1008.63 790.257L1008.9 790.994L1009.64 791.266L1008.9 791.539L1008.63 792.276L1008.35 791.539L1007.61 791.266L1008.35 790.994L1008.63 790.257Z" fill="#D9D9D9" fill-opacity="0.5"/>
</svg>
