<svg width="1438" height="957" viewBox="0 0 1438 957" fill="none" xmlns="http://www.w3.org/2000/svg">
<ellipse opacity="0.5" cx="561.721" cy="780.909" rx="1.01598" ry="1.00914" fill="#D9D9D9"/>
<ellipse cx="1100.32" cy="262.445" rx="1.01598" ry="1.00914" fill="#D9D9D9"/>
<ellipse cx="1306.59" cy="771.643" rx="1.01598" ry="1.00914" fill="#D9D9D9"/>
<ellipse opacity="0.5" cx="664.604" cy="603.27" rx="1.01598" ry="1.00914" fill="#D9D9D9"/>
<ellipse cx="461.764" cy="134.536" rx="1.01598" ry="1.00914" fill="#D9D9D9"/>
<ellipse cx="217.703" cy="163.974" rx="1.01598" ry="1.00914" fill="#D9D9D9"/>
<ellipse opacity="0.5" cx="678.161" cy="771.314" rx="1.01598" ry="1.00914" fill="#D9D9D9"/>
<ellipse opacity="0.5" cx="716.52" cy="578.341" rx="1.01598" ry="1.00914" fill="#D9D9D9"/>
<ellipse cx="832.932" cy="430.643" rx="1.01598" ry="1.00914" fill="#D9D9D9"/>
<ellipse cx="609.832" cy="660.85" rx="1.01598" ry="1.00914" fill="#D9D9D9"/>
<ellipse opacity="0.5" cx="1337.26" cy="468.258" rx="1.01598" ry="1.00914" fill="#D9D9D9"/>
<ellipse cx="988.401" cy="863.48" rx="1.01598" ry="1.00914" fill="#D9D9D9"/>
<ellipse opacity="0.5" cx="10.6195" cy="837.213" rx="1.01598" ry="1.00914" fill="#D9D9D9"/>
<ellipse cx="65.1722" cy="36.8766" rx="1.01598" ry="1.00914" fill="#D9D9D9"/>
<ellipse opacity="0.5" cx="164.334" cy="748.041" rx="1.01598" ry="1.00914" fill="#D9D9D9"/>
<ellipse opacity="0.5" cx="207.762" cy="723.074" rx="1.01598" ry="1.00914" fill="#D9D9D9"/>
<ellipse opacity="0.5" cx="706.705" cy="393.747" rx="1.01598" ry="1.00914" fill="#D9D9D9"/>
<ellipse opacity="0.5" cx="59.2933" cy="763.678" rx="1.01598" ry="1.00914" fill="#D9D9D9"/>
<ellipse opacity="0.5" cx="1383.09" cy="418.236" rx="1.01598" ry="1.00914" fill="#D9D9D9"/>
<ellipse cx="835.266" cy="611.604" rx="1.01598" ry="1.00914" fill="#D9D9D9"/>
<ellipse opacity="0.5" cx="473.106" cy="897.767" rx="1.01598" ry="1.00914" fill="#D9D9D9"/>
<ellipse cx="1252.11" cy="513.282" rx="1.01598" ry="1.00914" fill="#D9D9D9"/>
<ellipse opacity="0.5" cx="449.901" cy="184.676" rx="1.01598" ry="1.00914" fill="#D9D9D9"/>
<ellipse opacity="0.5" cx="1001.26" cy="111.567" rx="1.01598" ry="1.00914" fill="#D9D9D9"/>
<ellipse opacity="0.5" cx="390.69" cy="645.79" rx="1.01598" ry="1.00914" fill="#D9D9D9"/>
<ellipse opacity="0.5" cx="703.399" cy="421.548" rx="1.01598" ry="1.00914" fill="#D9D9D9"/>
<ellipse cx="340.422" cy="335.18" rx="1.01598" ry="1.00914" fill="#D9D9D9"/>
<ellipse opacity="0.5" cx="415.528" cy="44.2035" rx="1.01598" ry="1.00914" fill="#D9D9D9"/>
<ellipse cx="268.995" cy="340.76" rx="1.01598" ry="1.00914" fill="#D9D9D9"/>
<ellipse cx="1039.07" cy="485.971" rx="1.01598" ry="1.00914" fill="#D9D9D9"/>
<ellipse opacity="0.5" cx="1230.04" cy="490.555" rx="1.01598" ry="1.00914" fill="#D9D9D9"/>
<ellipse cx="1431.91" cy="835.515" rx="1.01598" ry="1.00914" fill="#D9D9D9"/>
<ellipse cx="180.457" cy="95.2982" rx="1.01598" ry="1.00914" fill="#D9D9D9"/>
<ellipse opacity="0.5" cx="632.932" cy="826.89" rx="1.01598" ry="1.00914" fill="#D9D9D9"/>
<ellipse opacity="0.5" cx="1.01598" cy="875.743" rx="1.01598" ry="1.00914" fill="#D9D9D9"/>
<ellipse opacity="0.5" cx="1295.74" cy="541.587" rx="1.01598" ry="1.00914" fill="#D9D9D9"/>
<ellipse opacity="0.5" cx="636.209" cy="892.94" rx="1.01598" ry="1.00914" fill="#D9D9D9"/>
<ellipse cx="910.469" cy="348.649" rx="1.01598" ry="1.00914" fill="#D9D9D9"/>
<ellipse opacity="0.5" cx="1297.03" cy="866.247" rx="1.01598" ry="1.00914" fill="#D9D9D9"/>
<ellipse opacity="0.5" cx="365.274" cy="172.569" rx="1.01598" ry="1.00914" fill="#D9D9D9"/>
<ellipse opacity="0.5" cx="941.483" cy="564.714" rx="1.01598" ry="1.00914" fill="#D9D9D9"/>
<rect x="1398.08" y="861.104" width="2.03196" height="2.01827" fill="#D9D9D9"/>
<rect x="868.676" y="627.394" width="2.03196" height="2.01827" fill="#D9D9D9"/>
<rect x="537.168" y="821.339" width="2.03196" height="2.01827" fill="#D9D9D9"/>
<rect opacity="0.5" x="839.24" y="179.023" width="2.03196" height="2.01827" fill="#D9D9D9"/>
<rect x="608.311" y="931.985" width="2.03196" height="2.01827" fill="#D9D9D9"/>
<rect x="1014.48" y="938.132" width="2.03196" height="2.01827" fill="#D9D9D9"/>
<rect x="810.137" y="166.346" width="2.03196" height="2.01827" fill="#D9D9D9"/>
<rect opacity="0.5" x="47.707" y="843.642" width="2.03196" height="2.01827" fill="#D9D9D9"/>
<rect x="1435.84" y="658.756" width="2.03196" height="2.01827" fill="#D9D9D9"/>
<rect x="292.07" y="902.433" width="2.03196" height="2.01827" fill="#D9D9D9"/>
<rect opacity="0.5" x="1064.56" y="517.784" width="2.03196" height="2.01827" fill="#D9D9D9"/>
<rect opacity="0.5" x="208.24" y="41.0779" width="2.03196" height="2.01827" fill="#D9D9D9"/>
<rect x="835.094" y="660.267" width="2.03196" height="2.01827" fill="#D9D9D9"/>
<rect x="369.467" y="318.036" width="2.03196" height="2.01827" fill="#D9D9D9"/>
<rect x="1193.78" y="553.266" width="2.03196" height="2.01827" fill="#D9D9D9"/>
<rect x="367.014" y="851.594" width="2.03196" height="2.01827" fill="#D9D9D9"/>
<rect opacity="0.5" x="1225.23" y="294.888" width="2.03196" height="2.01827" fill="#D9D9D9"/>
<rect opacity="0.5" x="1155.48" y="858.728" width="2.03196" height="2.01827" fill="#D9D9D9"/>
<rect x="1154.64" y="649.856" width="2.03196" height="2.01827" fill="#D9D9D9"/>
<rect opacity="0.5" x="1244.24" y="23.4888" width="2.03196" height="2.01827" fill="#D9D9D9"/>
<rect opacity="0.5" x="736.301" y="707.125" width="2.03196" height="2.01827" fill="#D9D9D9"/>
<rect x="133.064" y="913.293" width="2.03196" height="2.01827" fill="#D9D9D9"/>
<rect x="218.441" y="812.394" width="2.03196" height="2.01827" fill="#D9D9D9"/>
<rect opacity="0.5" x="1257.73" y="509.813" width="2.03196" height="2.01827" fill="#D9D9D9"/>
<rect x="905.062" y="388.042" width="2.03196" height="2.01827" fill="#D9D9D9"/>
<rect x="30.0801" y="601.032" width="2.03196" height="2.01827" fill="#D9D9D9"/>
<rect opacity="0.5" x="828.777" y="364.645" width="2.03196" height="2.01827" fill="#D9D9D9"/>
<rect opacity="0.5" x="372.887" y="865.931" width="2.03196" height="2.01827" fill="#D9D9D9"/>
<rect x="44.418" y="669.643" width="2.03196" height="2.01827" fill="#D9D9D9"/>
<rect x="499.02" y="629.113" width="2.03196" height="2.01827" fill="#D9D9D9"/>
<rect opacity="0.5" x="329.219" y="869.313" width="2.03196" height="2.01827" fill="#D9D9D9"/>
<rect opacity="0.5" x="924.094" y="631.717" width="2.03196" height="2.01827" fill="#D9D9D9"/>
<rect x="430.004" y="597.373" width="2.03196" height="2.01827" fill="#D9D9D9"/>
<rect opacity="0.5" x="919.555" y="159.647" width="2.03196" height="2.01827" fill="#D9D9D9"/>
<rect x="224.16" y="0.671875" width="2.03196" height="2.01827" fill="#D9D9D9"/>
<rect x="1068.48" y="923.774" width="2.03196" height="2.01827" fill="#D9D9D9"/>
<rect opacity="0.5" x="455.131" y="280.329" width="2.03196" height="2.01827" fill="#D9D9D9"/>
<rect x="596.793" y="163.917" width="2.03196" height="2.01827" fill="#D9D9D9"/>
<rect opacity="0.5" x="1011.6" y="878.166" width="2.03196" height="2.01827" fill="#D9D9D9"/>
<rect x="442.191" y="725.137" width="2.03196" height="2.01827" fill="#D9D9D9"/>
<rect opacity="0.5" x="152.727" y="493.216" width="2.03196" height="2.01827" fill="#D9D9D9"/>
<rect x="759.438" y="59.7048" width="2.03196" height="2.01827" fill="#D9D9D9"/>
<rect x="512.838" y="564.649" width="2.03196" height="2.01827" fill="#D9D9D9"/>
<rect x="642.742" y="184.925" width="2.03196" height="2.01827" fill="#D9D9D9"/>
<rect x="273.172" y="543.09" width="2.03196" height="2.01827" fill="#D9D9D9"/>
<rect x="276.621" y="11.4509" width="2.03196" height="2.01827" fill="#D9D9D9"/>
<rect x="1369.58" y="878.493" width="2.03196" height="2.01827" fill="#D9D9D9"/>
<path opacity="0.5" d="M402.811 899.011L403.085 899.747L403.827 900.02L403.085 900.292L402.811 901.029L402.536 900.292L401.795 900.02L402.536 899.747L402.811 899.011Z" fill="#D9D9D9"/>
<path opacity="0.5" d="M252.909 550.204L253.183 550.94L253.925 551.213L253.183 551.485L252.909 552.222L252.634 551.485L251.893 551.213L252.634 550.94L252.909 550.204Z" fill="#D9D9D9"/>
<path opacity="0.5" d="M744.424 845.012L744.699 845.749L745.44 846.021L744.699 846.294L744.424 847.03L744.15 846.294L743.408 846.021L744.15 845.749L744.424 845.012Z" fill="#D9D9D9"/>
<path opacity="0.5" d="M417.368 520.723L417.642 521.46L418.384 521.733L417.642 522.005L417.368 522.742L417.093 522.005L416.352 521.733L417.093 521.46L417.368 520.723Z" fill="#D9D9D9"/>
<path d="M242.836 647.982L243.111 648.719L243.852 648.992L243.111 649.264L242.836 650.001L242.562 649.264L241.82 648.992L242.562 648.719L242.836 647.982Z" fill="#D9D9D9"/>
<path d="M378.955 132.316L379.23 133.053L379.971 133.326L379.23 133.598L378.955 134.335L378.681 133.598L377.939 133.326L378.681 133.053L378.955 132.316Z" fill="#D9D9D9"/>
<path d="M1038.71 180.581L1038.98 181.317L1039.73 181.59L1038.98 181.863L1038.71 182.599L1038.43 181.863L1037.69 181.59L1038.43 181.317L1038.71 180.581Z" fill="#D9D9D9"/>
<path d="M1252.02 299.634L1252.3 300.371L1253.04 300.643L1252.3 300.916L1252.02 301.652L1251.75 300.916L1251.01 300.643L1251.75 300.371L1252.02 299.634Z" fill="#D9D9D9"/>
<path opacity="0.5" d="M1137.9 67.6692L1138.17 68.4058L1138.91 68.6783L1138.17 68.9509L1137.9 69.6875L1137.62 68.9509L1136.88 68.6783L1137.62 68.4058L1137.9 67.6692Z" fill="#D9D9D9"/>
<path d="M658.717 833.331L658.992 834.067L659.733 834.34L658.992 834.612L658.717 835.349L658.443 834.612L657.701 834.34L658.443 834.067L658.717 833.331Z" fill="#D9D9D9"/>
<path opacity="0.5" d="M1149.08 954.652L1149.35 955.388L1150.09 955.661L1149.35 955.933L1149.08 956.67L1148.8 955.933L1148.06 955.661L1148.8 955.388L1149.08 954.652Z" fill="#D9D9D9"/>
<path d="M162.043 70.3682L162.318 71.1047L163.059 71.3773L162.318 71.6499L162.043 72.3864L161.769 71.6499L161.027 71.3773L161.769 71.1047L162.043 70.3682Z" fill="#D9D9D9"/>
<path opacity="0.5" d="M820.801 637.642L821.076 638.379L821.817 638.651L821.076 638.924L820.801 639.661L820.527 638.924L819.785 638.651L820.527 638.379L820.801 637.642Z" fill="#D9D9D9"/>
<path opacity="0.5" d="M926.358 464.451L926.632 465.188L927.374 465.461L926.632 465.733L926.358 466.47L926.083 465.733L925.342 465.461L926.083 465.188L926.358 464.451Z" fill="#D9D9D9"/>
<path opacity="0.5" d="M961.875 914.109L962.15 914.846L962.891 915.119L962.15 915.391L961.875 916.128L961.601 915.391L960.859 915.119L961.601 914.846L961.875 914.109Z" fill="#D9D9D9"/>
<path opacity="0.5" d="M14.2132 510.183L14.4877 510.919L15.2292 511.192L14.4877 511.465L14.2132 512.201L13.9388 511.465L13.1973 511.192L13.9388 510.919L14.2132 510.183Z" fill="#D9D9D9"/>
<path opacity="0.5" d="M1029.71 289.571L1029.98 290.307L1030.73 290.58L1029.98 290.852L1029.71 291.589L1029.43 290.852L1028.69 290.58L1029.43 290.307L1029.71 289.571Z" fill="#D9D9D9"/>
<path d="M1324.03 2.42871L1324.31 3.16529L1325.05 3.43785L1324.31 3.7104L1324.03 4.44698L1323.76 3.7104L1323.02 3.43785L1323.76 3.16529L1324.03 2.42871Z" fill="#D9D9D9"/>
<path d="M181.93 303.028L182.204 303.765L182.946 304.037L182.204 304.31L181.93 305.047L181.656 304.31L180.914 304.037L181.656 303.765L181.93 303.028Z" fill="#D9D9D9"/>
<path d="M904.465 919.194L904.74 919.931L905.481 920.203L904.74 920.476L904.465 921.213L904.191 920.476L903.449 920.203L904.191 919.931L904.465 919.194Z" fill="#D9D9D9"/>
<path opacity="0.5" d="M824.95 729.511L825.224 730.247L825.966 730.52L825.224 730.792L824.95 731.529L824.675 730.792L823.934 730.52L824.675 730.247L824.95 729.511Z" fill="#D9D9D9"/>
<path d="M207.959 909.162L208.234 909.899L208.975 910.171L208.234 910.444L207.959 911.18L207.685 910.444L206.943 910.171L207.685 909.899L207.959 909.162Z" fill="#D9D9D9"/>
<path opacity="0.5" d="M105.6 590.992L105.874 591.728L106.616 592.001L105.874 592.273L105.6 593.01L105.326 592.273L104.584 592.001L105.326 591.728L105.6 590.992Z" fill="#D9D9D9"/>
<path d="M1385.55 667.445L1385.82 668.182L1386.56 668.454L1385.82 668.727L1385.55 669.463L1385.27 668.727L1384.53 668.454L1385.27 668.182L1385.55 667.445Z" fill="#D9D9D9"/>
<path d="M1049.29 623.489L1049.56 624.225L1050.3 624.498L1049.56 624.77L1049.29 625.507L1049.01 624.77L1048.27 624.498L1049.01 624.225L1049.29 623.489Z" fill="#D9D9D9"/>
<path d="M783.602 932.918L783.876 933.655L784.618 933.928L783.876 934.2L783.602 934.937L783.328 934.2L782.586 933.928L783.328 933.655L783.602 932.918Z" fill="#D9D9D9"/>
<path d="M310.424 399.406L310.699 400.142L311.44 400.415L310.699 400.687L310.424 401.424L310.15 400.687L309.408 400.415L310.15 400.142L310.424 399.406Z" fill="#D9D9D9"/>
<path opacity="0.5" d="M321.819 696.27L322.093 697.006L322.835 697.279L322.093 697.551L321.819 698.288L321.544 697.551L320.803 697.279L321.544 697.006L321.819 696.27Z" fill="#D9D9D9"/>
<path opacity="0.5" d="M633.555 224.711L633.829 225.447L634.571 225.72L633.829 225.992L633.555 226.729L633.281 225.992L632.539 225.72L633.281 225.447L633.555 224.711Z" fill="#D9D9D9"/>
<path opacity="0.5" d="M1259.78 460.994L1260.05 461.73L1260.8 462.003L1260.05 462.276L1259.78 463.012L1259.51 462.276L1258.76 462.003L1259.51 461.73L1259.78 460.994Z" fill="#D9D9D9"/>
<path opacity="0.5" d="M1057.46 320.61L1057.74 321.346L1058.48 321.619L1057.74 321.891L1057.46 322.628L1057.19 321.891L1056.45 321.619L1057.19 321.346L1057.46 320.61Z" fill="#D9D9D9"/>
<path opacity="0.5" d="M1185.26 511.666L1185.54 512.402L1186.28 512.675L1185.54 512.947L1185.26 513.684L1184.99 512.947L1184.25 512.675L1184.99 512.402L1185.26 511.666Z" fill="#D9D9D9"/>
<path d="M698.625 762.159L698.9 762.896L699.641 763.169L698.9 763.441L698.625 764.178L698.351 763.441L697.609 763.169L698.351 762.896L698.625 762.159Z" fill="#D9D9D9"/>
<path d="M395.944 499.095L396.218 499.832L396.96 500.104L396.218 500.377L395.944 501.113L395.669 500.377L394.928 500.104L395.669 499.832L395.944 499.095Z" fill="#D9D9D9"/>
<path d="M917.203 641.989L917.478 642.726L918.219 642.998L917.478 643.271L917.203 644.007L916.929 643.271L916.188 642.998L916.929 642.726L917.203 641.989Z" fill="#D9D9D9"/>
<path opacity="0.5" d="M296.436 954.225L296.71 954.961L297.452 955.234L296.71 955.506L296.436 956.243L296.161 955.506L295.42 955.234L296.161 954.961L296.436 954.225Z" fill="#D9D9D9"/>
<path d="M937.827 377.116L938.101 377.853L938.843 378.126L938.101 378.398L937.827 379.135L937.552 378.398L936.811 378.126L937.552 377.853L937.827 377.116Z" fill="#D9D9D9"/>
<path d="M41.514 326.65L41.7884 327.387L42.53 327.66L41.7884 327.932L41.514 328.669L41.2396 327.932L40.498 327.66L41.2396 327.387L41.514 326.65Z" fill="#D9D9D9"/>
<path d="M262.36 562.311L262.634 563.047L263.376 563.32L262.634 563.592L262.36 564.329L262.085 563.592L261.344 563.32L262.085 563.047L262.36 562.311Z" fill="#D9D9D9"/>
<path d="M1119.15 327.306L1119.43 328.043L1120.17 328.315L1119.43 328.588L1119.15 329.324L1118.88 328.588L1118.13 328.315L1118.88 328.043L1119.15 327.306Z" fill="#D9D9D9"/>
<path opacity="0.5" d="M373.366 424.054L373.64 424.79L374.382 425.063L373.64 425.335L373.366 426.072L373.091 425.335L372.35 425.063L373.091 424.79L373.366 424.054Z" fill="#D9D9D9"/>
<path opacity="0.5" d="M1100.89 427.872L1101.17 428.609L1101.91 428.881L1101.17 429.154L1100.89 429.891L1100.62 429.154L1099.88 428.881L1100.62 428.609L1100.89 427.872Z" fill="#D9D9D9"/>
<path d="M213.729 627.468L214.003 628.204L214.745 628.477L214.003 628.749L213.729 629.486L213.454 628.749L212.713 628.477L213.454 628.204L213.729 627.468Z" fill="#D9D9D9"/>
<path d="M602.358 480.962L602.632 481.698L603.374 481.971L602.632 482.244L602.358 482.98L602.083 482.244L601.342 481.971L602.083 481.698L602.358 480.962Z" fill="#D9D9D9"/>
<path d="M613.844 12.085L614.119 12.8215L614.86 13.0941L614.119 13.3667L613.844 14.1032L613.57 13.3667L612.828 13.0941L613.57 12.8215L613.844 12.085Z" fill="#D9D9D9"/>
<path opacity="0.5" d="M554.778 331.383L555.052 332.119L555.794 332.392L555.052 332.665L554.778 333.401L554.503 332.665L553.762 332.392L554.503 332.119L554.778 331.383Z" fill="#D9D9D9"/>
<path opacity="0.5" d="M91.6156 260.927L91.89 261.663L92.6316 261.936L91.89 262.208L91.6156 262.945L91.3412 262.208L90.5996 261.936L91.3412 261.663L91.6156 260.927Z" fill="#D9D9D9"/>
<path opacity="0.5" d="M195.938 191.848L196.212 192.584L196.954 192.857L196.212 193.129L195.938 193.866L195.663 193.129L194.922 192.857L195.663 192.584L195.938 191.848Z" fill="#D9D9D9"/>
<path d="M1289.79 876.601L1290.06 877.338L1290.8 877.61L1290.06 877.883L1289.79 878.619L1289.51 877.883L1288.77 877.61L1289.51 877.338L1289.79 876.601Z" fill="#D9D9D9"/>
<path d="M119.405 253.248L119.679 253.985L120.421 254.257L119.679 254.53L119.405 255.267L119.13 254.53L118.389 254.257L119.13 253.985L119.405 253.248Z" fill="#D9D9D9"/>
<path d="M564.643 185.549L564.917 186.286L565.659 186.558L564.917 186.831L564.643 187.567L564.369 186.831L563.627 186.558L564.369 186.286L564.643 185.549Z" fill="#D9D9D9"/>
<path opacity="0.5" d="M882.748 249.899L883.023 250.636L883.764 250.908L883.023 251.181L882.748 251.917L882.474 251.181L881.732 250.908L882.474 250.636L882.748 249.899Z" fill="#D9D9D9"/>
<path d="M384.297 214.525L384.572 215.262L385.313 215.535L384.572 215.807L384.297 216.544L384.023 215.807L383.281 215.535L384.023 215.262L384.297 214.525Z" fill="#D9D9D9"/>
<path d="M643.844 712.142L644.119 712.878L644.86 713.151L644.119 713.424L643.844 714.16L643.57 713.424L642.828 713.151L643.57 712.878L643.844 712.142Z" fill="#D9D9D9"/>
<path opacity="0.5" d="M1351.51 277.873L1351.79 278.609L1352.53 278.882L1351.79 279.154L1351.51 279.891L1351.24 279.154L1350.5 278.882L1351.24 278.609L1351.51 277.873Z" fill="#D9D9D9"/>
<path d="M1435.61 443.429L1435.88 444.166L1436.62 444.438L1435.88 444.711L1435.61 445.447L1435.33 444.711L1434.59 444.438L1435.33 444.166L1435.61 443.429Z" fill="#D9D9D9"/>
<path d="M305.096 532.911L305.37 533.648L306.112 533.921L305.37 534.193L305.096 534.93L304.822 534.193L304.08 533.921L304.822 533.648L305.096 532.911Z" fill="#D9D9D9"/>
<path d="M1315.07 64.2085L1315.34 64.9451L1316.08 65.2176L1315.34 65.4902L1315.07 66.2268L1314.79 65.4902L1314.05 65.2176L1314.79 64.9451L1315.07 64.2085Z" fill="#D9D9D9"/>
<path d="M480.116 825.501L480.39 826.238L481.132 826.51L480.39 826.783L480.116 827.519L479.841 826.783L479.1 826.51L479.841 826.238L480.116 825.501Z" fill="#D9D9D9"/>
<path opacity="0.5" d="M742.7 201.584L742.974 202.321L743.716 202.593L742.974 202.866L742.7 203.602L742.425 202.866L741.684 202.593L742.425 202.321L742.7 201.584Z" fill="#D9D9D9"/>
<path opacity="0.5" d="M828.969 461.842L829.244 462.579L829.985 462.851L829.244 463.124L828.969 463.861L828.695 463.124L827.953 462.851L828.695 462.579L828.969 461.842Z" fill="#D9D9D9"/>
<path opacity="0.5" d="M1419.77 214.268L1420.05 215.005L1420.79 215.277L1420.05 215.55L1419.77 216.287L1419.5 215.55L1418.76 215.277L1419.5 215.005L1419.77 214.268Z" fill="#D9D9D9"/>
<path opacity="0.5" d="M168.639 345.691L168.913 346.428L169.655 346.7L168.913 346.973L168.639 347.709L168.365 346.973L167.623 346.7L168.365 346.428L168.639 345.691Z" fill="#D9D9D9"/>
<path opacity="0.5" d="M1248.56 752.332L1248.83 753.068L1249.57 753.341L1248.83 753.613L1248.56 754.35L1248.28 753.613L1247.54 753.341L1248.28 753.068L1248.56 752.332Z" fill="#D9D9D9"/>
<path d="M1051.46 620.194L1051.73 620.93L1052.47 621.203L1051.73 621.476L1051.46 622.212L1051.18 621.476L1050.44 621.203L1051.18 620.93L1051.46 620.194Z" fill="#D9D9D9"/>
<path d="M756.084 309.81L756.359 310.546L757.1 310.819L756.359 311.091L756.084 311.828L755.81 311.091L755.068 310.819L755.81 310.546L756.084 309.81Z" fill="#D9D9D9"/>
<path opacity="0.5" d="M159.139 99.6191L159.413 100.356L160.155 100.628L159.413 100.901L159.139 101.637L158.865 100.901L158.123 100.628L158.865 100.356L159.139 99.6191Z" fill="#D9D9D9"/>
<path d="M1052.83 902.681L1053.11 903.417L1053.85 903.69L1053.11 903.963L1052.83 904.699L1052.56 903.963L1051.82 903.69L1052.56 903.417L1052.83 902.681Z" fill="#D9D9D9"/>
<path d="M1008.63 790.929L1008.9 791.666L1009.64 791.938L1008.9 792.211L1008.63 792.947L1008.35 792.211L1007.61 791.938L1008.35 791.666L1008.63 790.929Z" fill="#D9D9D9"/>
</svg>
