<svg width="1438" height="1171" viewBox="0 0 1438 1171" fill="none" xmlns="http://www.w3.org/2000/svg">
<ellipse opacity="0.5" cx="561.721" cy="955.839" rx="1.01598" ry="1.23534" fill="#D9D9D9"/>
<ellipse cx="1100.32" cy="321.161" rx="1.01598" ry="1.23534" fill="#D9D9D9"/>
<ellipse cx="1306.59" cy="944.498" rx="1.01598" ry="1.23534" fill="#D9D9D9"/>
<ellipse opacity="0.5" cx="664.604" cy="738.383" rx="1.01598" ry="1.23534" fill="#D9D9D9"/>
<ellipse cx="461.764" cy="164.581" rx="1.01598" ry="1.23534" fill="#D9D9D9"/>
<ellipse cx="217.703" cy="200.618" rx="1.01598" ry="1.23534" fill="#D9D9D9"/>
<ellipse opacity="0.5" cx="678.161" cy="944.094" rx="1.01598" ry="1.23534" fill="#D9D9D9"/>
<ellipse opacity="0.5" cx="716.52" cy="707.866" rx="1.01598" ry="1.23534" fill="#D9D9D9"/>
<ellipse cx="832.932" cy="527.061" rx="1.01598" ry="1.23534" fill="#D9D9D9"/>
<ellipse cx="609.832" cy="808.87" rx="1.01598" ry="1.23534" fill="#D9D9D9"/>
<ellipse opacity="0.5" cx="1337.26" cy="573.108" rx="1.01598" ry="1.23534" fill="#D9D9D9"/>
<ellipse cx="988.401" cy="1056.92" rx="1.01598" ry="1.23534" fill="#D9D9D9"/>
<ellipse opacity="0.5" cx="10.6195" cy="1024.77" rx="1.01598" ry="1.23534" fill="#D9D9D9"/>
<ellipse cx="65.1722" cy="45.0312" rx="1.01598" ry="1.23534" fill="#D9D9D9"/>
<ellipse opacity="0.5" cx="164.334" cy="915.604" rx="1.01598" ry="1.23534" fill="#D9D9D9"/>
<ellipse opacity="0.5" cx="207.762" cy="885.042" rx="1.01598" ry="1.23534" fill="#D9D9D9"/>
<ellipse opacity="0.5" cx="706.705" cy="481.895" rx="1.01598" ry="1.23534" fill="#D9D9D9"/>
<ellipse opacity="0.5" cx="59.2933" cy="934.747" rx="1.01598" ry="1.23534" fill="#D9D9D9"/>
<ellipse opacity="0.5" cx="1383.09" cy="511.873" rx="1.01598" ry="1.23534" fill="#D9D9D9"/>
<ellipse cx="835.266" cy="748.585" rx="1.01598" ry="1.23534" fill="#D9D9D9"/>
<ellipse opacity="0.5" cx="473.106" cy="1098.89" rx="1.01598" ry="1.23534" fill="#D9D9D9"/>
<ellipse cx="1252.11" cy="628.223" rx="1.01598" ry="1.23534" fill="#D9D9D9"/>
<ellipse opacity="0.5" cx="449.901" cy="225.96" rx="1.01598" ry="1.23534" fill="#D9D9D9"/>
<ellipse opacity="0.5" cx="1001.26" cy="136.462" rx="1.01598" ry="1.23534" fill="#D9D9D9"/>
<ellipse opacity="0.5" cx="390.69" cy="790.434" rx="1.01598" ry="1.23534" fill="#D9D9D9"/>
<ellipse opacity="0.5" cx="703.399" cy="515.928" rx="1.01598" ry="1.23534" fill="#D9D9D9"/>
<ellipse cx="340.422" cy="410.199" rx="1.01598" ry="1.23534" fill="#D9D9D9"/>
<ellipse opacity="0.5" cx="415.528" cy="54.0005" rx="1.01598" ry="1.23534" fill="#D9D9D9"/>
<ellipse cx="268.995" cy="417.03" rx="1.01598" ry="1.23534" fill="#D9D9D9"/>
<ellipse cx="1039.07" cy="594.791" rx="1.01598" ry="1.23534" fill="#D9D9D9"/>
<ellipse opacity="0.5" cx="1230.04" cy="600.402" rx="1.01598" ry="1.23534" fill="#D9D9D9"/>
<ellipse cx="1431.91" cy="1022.69" rx="1.01598" ry="1.23534" fill="#D9D9D9"/>
<ellipse cx="180.457" cy="116.548" rx="1.01598" ry="1.23534" fill="#D9D9D9"/>
<ellipse opacity="0.5" cx="632.932" cy="1012.13" rx="1.01598" ry="1.23534" fill="#D9D9D9"/>
<ellipse opacity="0.5" cx="1.01598" cy="1071.93" rx="1.01598" ry="1.23534" fill="#D9D9D9"/>
<ellipse opacity="0.5" cx="1295.74" cy="662.873" rx="1.01598" ry="1.23534" fill="#D9D9D9"/>
<ellipse opacity="0.5" cx="636.209" cy="1092.98" rx="1.01598" ry="1.23534" fill="#D9D9D9"/>
<ellipse cx="910.469" cy="426.687" rx="1.01598" ry="1.23534" fill="#D9D9D9"/>
<ellipse opacity="0.5" cx="1297.03" cy="1060.31" rx="1.01598" ry="1.23534" fill="#D9D9D9"/>
<ellipse opacity="0.5" cx="365.274" cy="211.139" rx="1.01598" ry="1.23534" fill="#D9D9D9"/>
<ellipse opacity="0.5" cx="941.483" cy="691.184" rx="1.01598" ry="1.23534" fill="#D9D9D9"/>
<rect x="1398.08" y="1054.01" width="2.03196" height="2.47067" fill="#D9D9D9"/>
<rect x="868.676" y="767.914" width="2.03196" height="2.47067" fill="#D9D9D9"/>
<rect x="537.168" y="1005.33" width="2.03196" height="2.47067" fill="#D9D9D9"/>
<rect opacity="0.5" x="839.24" y="219.039" width="2.03196" height="2.47067" fill="#D9D9D9"/>
<rect x="608.311" y="1140.78" width="2.03196" height="2.47067" fill="#D9D9D9"/>
<rect x="1014.48" y="1148.3" width="2.03196" height="2.47067" fill="#D9D9D9"/>
<rect x="810.137" y="203.521" width="2.03196" height="2.47067" fill="#D9D9D9"/>
<rect opacity="0.5" x="47.707" y="1032.63" width="2.03196" height="2.47067" fill="#D9D9D9"/>
<rect x="1435.84" y="806.307" width="2.03196" height="2.47067" fill="#D9D9D9"/>
<rect x="292.07" y="1104.6" width="2.03196" height="2.47067" fill="#D9D9D9"/>
<rect opacity="0.5" x="1064.56" y="633.735" width="2.03196" height="2.47067" fill="#D9D9D9"/>
<rect opacity="0.5" x="208.24" y="50.1738" width="2.03196" height="2.47067" fill="#D9D9D9"/>
<rect x="835.094" y="808.155" width="2.03196" height="2.47067" fill="#D9D9D9"/>
<rect x="369.467" y="389.212" width="2.03196" height="2.47067" fill="#D9D9D9"/>
<rect x="1193.78" y="677.17" width="2.03196" height="2.47067" fill="#D9D9D9"/>
<rect x="367.014" y="1042.37" width="2.03196" height="2.47067" fill="#D9D9D9"/>
<rect opacity="0.5" x="1225.23" y="360.876" width="2.03196" height="2.47067" fill="#D9D9D9"/>
<rect opacity="0.5" x="1155.48" y="1051.1" width="2.03196" height="2.47067" fill="#D9D9D9"/>
<rect x="1154.64" y="795.412" width="2.03196" height="2.47067" fill="#D9D9D9"/>
<rect opacity="0.5" x="1244.24" y="28.6421" width="2.03196" height="2.47067" fill="#D9D9D9"/>
<rect opacity="0.5" x="736.301" y="865.518" width="2.03196" height="2.47067" fill="#D9D9D9"/>
<rect x="133.064" y="1117.9" width="2.03196" height="2.47067" fill="#D9D9D9"/>
<rect x="218.441" y="994.382" width="2.03196" height="2.47067" fill="#D9D9D9"/>
<rect opacity="0.5" x="1257.73" y="623.978" width="2.03196" height="2.47067" fill="#D9D9D9"/>
<rect x="905.062" y="474.91" width="2.03196" height="2.47067" fill="#D9D9D9"/>
<rect x="30.0801" y="735.644" width="2.03196" height="2.47067" fill="#D9D9D9"/>
<rect opacity="0.5" x="828.777" y="446.269" width="2.03196" height="2.47067" fill="#D9D9D9"/>
<rect opacity="0.5" x="372.887" y="1059.92" width="2.03196" height="2.47067" fill="#D9D9D9"/>
<rect x="44.418" y="819.633" width="2.03196" height="2.47067" fill="#D9D9D9"/>
<rect x="499.02" y="770.019" width="2.03196" height="2.47067" fill="#D9D9D9"/>
<rect opacity="0.5" x="329.219" y="1064.06" width="2.03196" height="2.47067" fill="#D9D9D9"/>
<rect opacity="0.5" x="924.094" y="773.206" width="2.03196" height="2.47067" fill="#D9D9D9"/>
<rect x="430.004" y="731.164" width="2.03196" height="2.47067" fill="#D9D9D9"/>
<rect opacity="0.5" x="919.555" y="195.321" width="2.03196" height="2.47067" fill="#D9D9D9"/>
<rect x="224.16" y="0.710938" width="2.03196" height="2.47067" fill="#D9D9D9"/>
<rect x="1068.48" y="1130.73" width="2.03196" height="2.47067" fill="#D9D9D9"/>
<rect opacity="0.5" x="455.131" y="343.054" width="2.03196" height="2.47067" fill="#D9D9D9"/>
<rect x="596.793" y="200.548" width="2.03196" height="2.47067" fill="#D9D9D9"/>
<rect opacity="0.5" x="1011.6" y="1074.9" width="2.03196" height="2.47067" fill="#D9D9D9"/>
<rect x="442.191" y="887.567" width="2.03196" height="2.47067" fill="#D9D9D9"/>
<rect opacity="0.5" x="152.727" y="603.66" width="2.03196" height="2.47067" fill="#D9D9D9"/>
<rect x="759.438" y="72.9766" width="2.03196" height="2.47067" fill="#D9D9D9"/>
<rect x="512.838" y="691.104" width="2.03196" height="2.47067" fill="#D9D9D9"/>
<rect x="642.742" y="226.264" width="2.03196" height="2.47067" fill="#D9D9D9"/>
<rect x="273.172" y="664.714" width="2.03196" height="2.47067" fill="#D9D9D9"/>
<rect x="276.621" y="13.9062" width="2.03196" height="2.47067" fill="#D9D9D9"/>
<rect x="1369.58" y="1075.3" width="2.03196" height="2.47067" fill="#D9D9D9"/>
<path opacity="0.5" d="M402.811 1100.41L403.085 1101.32L403.827 1101.65L403.085 1101.98L402.811 1102.89L402.536 1101.98L401.795 1101.65L402.536 1101.32L402.811 1100.41Z" fill="#D9D9D9"/>
<path opacity="0.5" d="M252.909 673.421L253.183 674.323L253.925 674.657L253.183 674.99L252.909 675.892L252.634 674.99L251.893 674.657L252.634 674.323L252.909 673.421Z" fill="#D9D9D9"/>
<path opacity="0.5" d="M744.424 1034.31L744.699 1035.21L745.44 1035.55L744.699 1035.88L744.424 1036.78L744.15 1035.88L743.408 1035.55L744.15 1035.21L744.424 1034.31Z" fill="#D9D9D9"/>
<path opacity="0.5" d="M417.368 637.333L417.642 638.235L418.384 638.569L417.642 638.902L417.368 639.804L417.093 638.902L416.352 638.569L417.093 638.235L417.368 637.333Z" fill="#D9D9D9"/>
<path d="M242.836 793.118L243.111 794.019L243.852 794.353L243.111 794.687L242.836 795.588L242.562 794.687L241.82 794.353L242.562 794.019L242.836 793.118Z" fill="#D9D9D9"/>
<path d="M378.955 161.864L379.23 162.765L379.971 163.099L379.23 163.433L378.955 164.334L378.681 163.433L377.939 163.099L378.681 162.765L378.955 161.864Z" fill="#D9D9D9"/>
<path d="M1038.71 220.947L1038.98 221.849L1039.73 222.183L1038.98 222.516L1038.71 223.418L1038.43 222.516L1037.69 222.183L1038.43 221.849L1038.71 220.947Z" fill="#D9D9D9"/>
<path d="M1252.02 366.686L1252.3 367.588L1253.04 367.921L1252.3 368.255L1252.02 369.157L1251.75 368.255L1251.01 367.921L1251.75 367.588L1252.02 366.686Z" fill="#D9D9D9"/>
<path opacity="0.5" d="M1137.9 82.7256L1138.17 83.6273L1138.91 83.9609L1138.17 84.2946L1137.9 85.1963L1137.62 84.2946L1136.88 83.9609L1137.62 83.6273L1137.9 82.7256Z" fill="#D9D9D9"/>
<path d="M658.717 1020.01L658.992 1020.91L659.733 1021.25L658.992 1021.58L658.717 1022.48L658.443 1021.58L657.701 1021.25L658.443 1020.91L658.717 1020.01Z" fill="#D9D9D9"/>
<path opacity="0.5" d="M1149.08 1168.53L1149.35 1169.43L1150.09 1169.76L1149.35 1170.1L1149.08 1171L1148.8 1170.1L1148.06 1169.76L1148.8 1169.43L1149.08 1168.53Z" fill="#D9D9D9"/>
<path d="M162.043 86.0298L162.318 86.9315L163.059 87.2651L162.318 87.5988L162.043 88.5005L161.769 87.5988L161.027 87.2651L161.769 86.9315L162.043 86.0298Z" fill="#D9D9D9"/>
<path opacity="0.5" d="M820.801 780.459L821.076 781.361L821.817 781.695L821.076 782.028L820.801 782.93L820.527 782.028L819.785 781.695L820.527 781.361L820.801 780.459Z" fill="#D9D9D9"/>
<path opacity="0.5" d="M926.358 568.447L926.632 569.349L927.374 569.683L926.632 570.016L926.358 570.918L926.083 570.016L925.342 569.683L926.083 569.349L926.358 568.447Z" fill="#D9D9D9"/>
<path opacity="0.5" d="M961.875 1118.9L962.15 1119.8L962.891 1120.13L962.15 1120.47L961.875 1121.37L961.601 1120.47L960.859 1120.13L961.601 1119.8L961.875 1118.9Z" fill="#D9D9D9"/>
<path opacity="0.5" d="M14.2132 624.43L14.4877 625.332L15.2292 625.666L14.4877 625.999L14.2132 626.901L13.9388 625.999L13.1973 625.666L13.9388 625.332L14.2132 624.43Z" fill="#D9D9D9"/>
<path opacity="0.5" d="M1029.71 354.367L1029.98 355.269L1030.73 355.603L1029.98 355.936L1029.71 356.838L1029.43 355.936L1028.69 355.603L1029.43 355.269L1029.71 354.367Z" fill="#D9D9D9"/>
<path d="M1324.03 2.86133L1324.31 3.76301L1325.05 4.09666L1324.31 4.43032L1324.03 5.332L1323.76 4.43032L1323.02 4.09666L1323.76 3.76301L1324.03 2.86133Z" fill="#D9D9D9"/>
<path d="M181.93 370.841L182.204 371.743L182.946 372.077L182.204 372.41L181.93 373.312L181.656 372.41L180.914 372.077L181.656 371.743L181.93 370.841Z" fill="#D9D9D9"/>
<path d="M904.465 1125.12L904.74 1126.02L905.481 1126.36L904.74 1126.69L904.465 1127.59L904.191 1126.69L903.449 1126.36L904.191 1126.02L904.465 1125.12Z" fill="#D9D9D9"/>
<path opacity="0.5" d="M824.95 892.921L825.224 893.823L825.966 894.156L825.224 894.49L824.95 895.392L824.675 894.49L823.934 894.156L824.675 893.823L824.95 892.921Z" fill="#D9D9D9"/>
<path d="M207.959 1112.84L208.234 1113.74L208.975 1114.08L208.234 1114.41L207.959 1115.31L207.685 1114.41L206.943 1114.08L207.685 1113.74L207.959 1112.84Z" fill="#D9D9D9"/>
<path opacity="0.5" d="M105.6 723.352L105.874 724.254L106.616 724.587L105.874 724.921L105.6 725.823L105.326 724.921L104.584 724.587L105.326 724.254L105.6 723.352Z" fill="#D9D9D9"/>
<path d="M1385.55 816.943L1385.82 817.845L1386.56 818.179L1385.82 818.512L1385.55 819.414L1385.27 818.512L1384.53 818.179L1385.27 817.845L1385.55 816.943Z" fill="#D9D9D9"/>
<path d="M1049.29 763.134L1049.56 764.035L1050.3 764.369L1049.56 764.703L1049.29 765.604L1049.01 764.703L1048.27 764.369L1049.01 764.035L1049.29 763.134Z" fill="#D9D9D9"/>
<path d="M783.602 1141.92L783.876 1142.82L784.618 1143.16L783.876 1143.49L783.602 1144.39L783.328 1143.49L782.586 1143.16L783.328 1142.82L783.602 1141.92Z" fill="#D9D9D9"/>
<path d="M310.424 488.822L310.699 489.723L311.44 490.057L310.699 490.391L310.424 491.292L310.15 490.391L309.408 490.057L310.15 489.723L310.424 488.822Z" fill="#D9D9D9"/>
<path opacity="0.5" d="M321.819 852.229L322.093 853.13L322.835 853.464L322.093 853.798L321.819 854.699L321.544 853.798L320.803 853.464L321.544 853.13L321.819 852.229Z" fill="#D9D9D9"/>
<path opacity="0.5" d="M633.555 274.969L633.829 275.87L634.571 276.204L633.829 276.538L633.555 277.439L633.281 276.538L632.539 276.204L633.281 275.87L633.555 274.969Z" fill="#D9D9D9"/>
<path opacity="0.5" d="M1259.78 564.215L1260.05 565.117L1260.8 565.451L1260.05 565.784L1259.78 566.686L1259.51 565.784L1258.76 565.451L1259.51 565.117L1259.78 564.215Z" fill="#D9D9D9"/>
<path opacity="0.5" d="M1057.46 392.363L1057.74 393.265L1058.48 393.599L1057.74 393.932L1057.46 394.834L1057.19 393.932L1056.45 393.599L1057.19 393.265L1057.46 392.363Z" fill="#D9D9D9"/>
<path opacity="0.5" d="M1185.26 626.245L1185.54 627.147L1186.28 627.48L1185.54 627.814L1185.26 628.716L1184.99 627.814L1184.25 627.48L1184.99 627.147L1185.26 626.245Z" fill="#D9D9D9"/>
<path d="M698.625 932.887L698.9 933.789L699.641 934.123L698.9 934.456L698.625 935.358L698.351 934.456L697.609 934.123L698.351 933.789L698.625 932.887Z" fill="#D9D9D9"/>
<path d="M395.944 610.856L396.218 611.758L396.96 612.092L396.218 612.425L395.944 613.327L395.669 612.425L394.928 612.092L395.669 611.758L395.944 610.856Z" fill="#D9D9D9"/>
<path d="M917.203 785.781L917.478 786.683L918.219 787.017L917.478 787.35L917.203 788.252L916.929 787.35L916.188 787.017L916.929 786.683L917.203 785.781Z" fill="#D9D9D9"/>
<path opacity="0.5" d="M296.436 1168L296.71 1168.91L297.452 1169.24L296.71 1169.57L296.436 1170.48L296.161 1169.57L295.42 1169.24L296.161 1168.91L296.436 1168Z" fill="#D9D9D9"/>
<path d="M937.827 461.537L938.101 462.438L938.843 462.772L938.101 463.106L937.827 464.007L937.552 463.106L936.811 462.772L937.552 462.438L937.827 461.537Z" fill="#D9D9D9"/>
<path d="M41.514 399.758L41.7884 400.66L42.53 400.994L41.7884 401.327L41.514 402.229L41.2396 401.327L40.498 400.994L41.2396 400.66L41.514 399.758Z" fill="#D9D9D9"/>
<path d="M262.36 688.242L262.634 689.144L263.376 689.478L262.634 689.811L262.36 690.713L262.085 689.811L261.344 689.478L262.085 689.144L262.36 688.242Z" fill="#D9D9D9"/>
<path d="M1119.15 400.561L1119.43 401.463L1120.17 401.796L1119.43 402.13L1119.15 403.032L1118.88 402.13L1118.13 401.796L1118.88 401.463L1119.15 400.561Z" fill="#D9D9D9"/>
<path opacity="0.5" d="M373.366 518.995L373.64 519.896L374.382 520.23L373.64 520.564L373.366 521.465L373.091 520.564L372.35 520.23L373.091 519.896L373.366 518.995Z" fill="#D9D9D9"/>
<path opacity="0.5" d="M1100.89 523.669L1101.17 524.571L1101.91 524.905L1101.17 525.238L1100.89 526.14L1100.62 525.238L1099.88 524.905L1100.62 524.571L1100.89 523.669Z" fill="#D9D9D9"/>
<path d="M213.729 768.004L214.003 768.906L214.745 769.24L214.003 769.573L213.729 770.475L213.454 769.573L212.713 769.24L213.454 768.906L213.729 768.004Z" fill="#D9D9D9"/>
<path d="M602.358 588.659L602.632 589.561L603.374 589.895L602.632 590.228L602.358 591.13L602.083 590.228L601.342 589.895L602.083 589.561L602.358 588.659Z" fill="#D9D9D9"/>
<path d="M613.844 14.6821L614.119 15.5838L614.86 15.9175L614.119 16.2511L613.844 17.1528L613.57 16.2511L612.828 15.9175L613.57 15.5838L613.844 14.6821Z" fill="#D9D9D9"/>
<path opacity="0.5" d="M554.778 405.551L555.052 406.453L555.794 406.787L555.052 407.12L554.778 408.022L554.503 407.12L553.762 406.787L554.503 406.453L554.778 405.551Z" fill="#D9D9D9"/>
<path opacity="0.5" d="M91.6156 319.303L91.89 320.204L92.6316 320.538L91.89 320.872L91.6156 321.773L91.3412 320.872L90.5996 320.538L91.3412 320.204L91.6156 319.303Z" fill="#D9D9D9"/>
<path opacity="0.5" d="M195.938 234.739L196.212 235.641L196.954 235.975L196.212 236.308L195.938 237.21L195.663 236.308L194.922 235.975L195.663 235.641L195.938 234.739Z" fill="#D9D9D9"/>
<path d="M1289.79 1072.98L1290.06 1073.88L1290.8 1074.22L1290.06 1074.55L1289.79 1075.45L1289.51 1074.55L1288.77 1074.22L1289.51 1073.88L1289.79 1072.98Z" fill="#D9D9D9"/>
<path d="M119.405 309.903L119.679 310.805L120.421 311.139L119.679 311.472L119.405 312.374L119.13 311.472L118.389 311.139L119.13 310.805L119.405 309.903Z" fill="#D9D9D9"/>
<path d="M564.643 227.028L564.917 227.93L565.659 228.264L564.917 228.597L564.643 229.499L564.369 228.597L563.627 228.264L564.369 227.93L564.643 227.028Z" fill="#D9D9D9"/>
<path opacity="0.5" d="M882.748 305.803L883.023 306.704L883.764 307.038L883.023 307.372L882.748 308.273L882.474 307.372L881.732 307.038L882.474 306.704L882.748 305.803Z" fill="#D9D9D9"/>
<path d="M384.297 262.5L384.572 263.402L385.313 263.735L384.572 264.069L384.297 264.971L384.023 264.069L383.281 263.735L384.023 263.402L384.297 262.5Z" fill="#D9D9D9"/>
<path d="M643.844 871.658L644.119 872.56L644.86 872.894L644.119 873.227L643.844 874.129L643.57 873.227L642.828 872.894L643.57 872.56L643.844 871.658Z" fill="#D9D9D9"/>
<path opacity="0.5" d="M1351.51 340.047L1351.79 340.949L1352.53 341.282L1351.79 341.616L1351.51 342.518L1351.24 341.616L1350.5 341.282L1351.24 340.949L1351.51 340.047Z" fill="#D9D9D9"/>
<path d="M1435.61 542.713L1435.88 543.615L1436.62 543.949L1435.88 544.282L1435.61 545.184L1435.33 544.282L1434.59 543.949L1435.33 543.615L1435.61 542.713Z" fill="#D9D9D9"/>
<path d="M305.096 652.253L305.37 653.155L306.112 653.488L305.37 653.822L305.096 654.724L304.822 653.822L304.08 653.488L304.822 653.155L305.096 652.253Z" fill="#D9D9D9"/>
<path d="M1315.07 78.4893L1315.34 79.3909L1316.08 79.7246L1315.34 80.0582L1315.07 80.9599L1314.79 80.0582L1314.05 79.7246L1314.79 79.3909L1315.07 78.4893Z" fill="#D9D9D9"/>
<path d="M480.116 1010.43L480.39 1011.33L481.132 1011.66L480.39 1012L480.116 1012.9L479.841 1012L479.1 1011.66L479.841 1011.33L480.116 1010.43Z" fill="#D9D9D9"/>
<path opacity="0.5" d="M742.7 246.659L742.974 247.56L743.716 247.894L742.974 248.228L742.7 249.129L742.425 248.228L741.684 247.894L742.425 247.56L742.7 246.659Z" fill="#D9D9D9"/>
<path opacity="0.5" d="M828.969 565.254L829.244 566.156L829.985 566.489L829.244 566.823L828.969 567.725L828.695 566.823L827.953 566.489L828.695 566.156L828.969 565.254Z" fill="#D9D9D9"/>
<path opacity="0.5" d="M1419.77 262.185L1420.05 263.087L1420.79 263.42L1420.05 263.754L1419.77 264.656L1419.5 263.754L1418.76 263.42L1419.5 263.087L1419.77 262.185Z" fill="#D9D9D9"/>
<path opacity="0.5" d="M168.639 423.067L168.913 423.969L169.655 424.302L168.913 424.636L168.639 425.538L168.365 424.636L167.623 424.302L168.365 423.969L168.639 423.067Z" fill="#D9D9D9"/>
<path opacity="0.5" d="M1248.56 920.857L1248.83 921.759L1249.57 922.092L1248.83 922.426L1248.56 923.328L1248.28 922.426L1247.54 922.092L1248.28 921.759L1248.56 920.857Z" fill="#D9D9D9"/>
<path d="M1051.46 759.1L1051.73 760.002L1052.47 760.335L1051.73 760.669L1051.46 761.571L1051.18 760.669L1050.44 760.335L1051.18 760.002L1051.46 759.1Z" fill="#D9D9D9"/>
<path d="M756.084 379.143L756.359 380.044L757.1 380.378L756.359 380.712L756.084 381.613L755.81 380.712L755.068 380.378L755.81 380.044L756.084 379.143Z" fill="#D9D9D9"/>
<path opacity="0.5" d="M159.139 121.837L159.413 122.739L160.155 123.073L159.413 123.406L159.139 124.308L158.865 123.406L158.123 123.073L158.865 122.739L159.139 121.837Z" fill="#D9D9D9"/>
<path d="M1052.83 1104.91L1053.11 1105.81L1053.85 1106.14L1053.11 1106.48L1052.83 1107.38L1052.56 1106.48L1051.82 1106.14L1052.56 1105.81L1052.83 1104.91Z" fill="#D9D9D9"/>
<path d="M1008.63 968.106L1008.9 969.008L1009.64 969.342L1008.9 969.675L1008.63 970.577L1008.35 969.675L1007.61 969.342L1008.35 969.008L1008.63 968.106Z" fill="#D9D9D9"/>
</svg>
