<svg width="1853" height="1587" viewBox="0 0 1853 1587" fill="none" xmlns="http://www.w3.org/2000/svg">
<g filter="url(#filter0_f_693_1706)">
<ellipse cx="926.5" cy="793.5" rx="426.5" ry="293.5" fill="#541470"/>
</g>
<path d="M1749.5 930.5C1749.5 973.036 1726.19 1013.62 1683.9 1050.59C1641.6 1087.57 1580.38 1120.89 1504.67 1148.88C1353.28 1204.86 1144.09 1239.5 913 1239.5C681.912 1239.5 472.724 1204.86 321.325 1148.88C245.624 1120.89 184.397 1087.57 142.105 1050.59C99.8114 1013.62 76.5 973.036 76.5 930.5C76.5 887.964 99.8114 847.38 142.105 810.405C184.397 773.431 245.624 740.112 321.325 712.119C472.724 656.136 681.912 621.5 913 621.5C1144.09 621.5 1353.28 656.136 1504.67 712.119C1580.38 740.112 1641.6 773.431 1683.9 810.405C1726.19 847.38 1749.5 887.964 1749.5 930.5Z" fill="#0A010C" stroke="url(#paint0_linear_693_1706)"/>
<defs>
<filter id="filter0_f_693_1706" x="0" y="0" width="1853" height="1587" filterUnits="userSpaceOnUse" color-interpolation-filters="sRGB">
<feFlood flood-opacity="0" result="BackgroundImageFix"/>
<feBlend mode="normal" in="SourceGraphic" in2="BackgroundImageFix" result="shape"/>
<feGaussianBlur stdDeviation="250" result="effect1_foregroundBlur_693_1706"/>
</filter>
<linearGradient id="paint0_linear_693_1706" x1="913" y1="621" x2="913" y2="723.758" gradientUnits="userSpaceOnUse">
<stop offset="0.0781117" stop-color="#A921D3" stop-opacity="0.5"/>
<stop offset="0.28" stop-color="#350843" stop-opacity="0.5"/>
</linearGradient>
</defs>
</svg>
