<svg width="74" height="71" viewBox="0 0 74 71" fill="none" xmlns="http://www.w3.org/2000/svg">
<path d="M47.5926 64.5982L47.5926 64.5983L47.5992 64.5873L50.6617 59.4832L50.6681 59.4726L50.6743 59.4619C50.6965 59.4238 50.7243 59.4032 50.7667 59.3926C50.8134 59.381 50.8758 59.3841 50.9431 59.4234C50.9812 59.4456 51.0019 59.4734 51.0124 59.5159C51.0237 59.5611 51.0211 59.6213 50.9849 59.6865L50.2067 60.9835L47.8846 64.8537C47.8401 64.854 47.7955 64.8542 47.7509 64.8542C47.7287 64.8542 47.6982 64.8479 47.6647 64.8282C47.6303 64.8079 47.6077 64.7821 47.5962 64.7617C47.5833 64.7389 47.5739 64.7068 47.5742 64.6713C47.5746 64.6371 47.5836 64.6131 47.5926 64.5982Z" stroke="#6C6371" stroke-width="4"/>
<path d="M30.407 6.40194L30.4023 6.40952L30.3978 6.41715L27.3379 11.5462C27.3377 11.5465 27.3375 11.5468 27.3373 11.5471C27.2913 11.6227 27.1853 11.655 27.0916 11.5978L27.0847 11.5935L27.0777 11.5893C27.0014 11.5436 26.9686 11.4371 27.0261 11.3431L27.0303 11.3361L27.0345 11.3292L27.822 10.0167L30.1443 6.14626C30.1791 6.14608 30.2139 6.146 30.2487 6.146C30.2709 6.146 30.3014 6.15228 30.3349 6.17198C30.3693 6.19224 30.3919 6.21805 30.4034 6.23845C30.4163 6.26129 30.4257 6.29333 30.4254 6.32885C30.425 6.36302 30.416 6.38707 30.407 6.40194ZM29.3862 6.16387L25.6501 7.04055C16.6903 9.14305 10.0195 17.1646 10.0195 26.7502C10.0195 26.7853 10.0058 26.8323 9.96001 26.8781C9.9142 26.9239 9.8672 26.9377 9.83203 26.9377C9.79686 26.9377 9.74986 26.9239 9.70406 26.8781C9.65825 26.8323 9.64453 26.7853 9.64453 26.7502C9.64453 15.6895 18.4339 6.61852 29.3862 6.16387Z" stroke="#6C6371" stroke-width="4"/>
<path d="M64.1429 32.5V28C64.1429 23.9586 64.1429 21.94 62.8871 20.6843C61.6314 19.4286 59.6129 19.4286 55.5714 19.4286C51.53 19.4286 49.5114 19.4286 48.2557 20.6843C47 21.94 47 23.9586 47 28V29.0714M59.8571 9.78571C59.8571 10.9224 59.4056 12.0124 58.6019 12.8162C57.7982 13.6199 56.7081 14.0714 55.5714 14.0714C54.4348 14.0714 53.3447 13.6199 52.541 12.8162C51.7372 12.0124 51.2857 10.9224 51.2857 9.78571C51.2857 8.64907 51.7372 7.55898 52.541 6.75526C53.3447 5.95153 54.4348 5.5 55.5714 5.5C56.7081 5.5 57.7982 5.95153 58.6019 6.75526C59.4056 7.55898 59.8571 8.64907 59.8571 9.78571Z" stroke="#6C6371" stroke-width="1.5" stroke-linecap="round" stroke-linejoin="round"/>
<path d="M30.1429 59.0714V58C30.1429 53.9586 30.1429 51.94 28.8871 50.6843C27.6314 49.4286 25.6129 49.4286 21.5714 49.4286C17.53 49.4286 15.5114 49.4286 14.2557 50.6843C13 51.94 13 53.9586 13 58V59.0714M25.8571 39.7857C25.8571 40.9224 25.4056 42.0124 24.6019 42.8162C23.7982 43.6199 22.7081 44.0714 21.5714 44.0714C20.4348 44.0714 19.3447 43.6199 18.541 42.8162C17.7372 42.0124 17.2857 40.9224 17.2857 39.7857C17.2857 38.6491 17.7372 37.559 18.541 36.7553C19.3447 35.9515 20.4348 35.5 21.5714 35.5C22.7081 35.5 23.7982 35.9515 24.6019 36.7553C25.4056 37.559 25.8571 38.6491 25.8571 39.7857Z" stroke="#6C6371" stroke-width="1.5" stroke-linecap="round" stroke-linejoin="round"/>
<path d="M20.2857 68.0714L17.4286 59.5H6L8.85714 68.0714H20.2857ZM20.2857 68.0714H26" stroke="#6C6371" stroke-width="1.5" stroke-linecap="round" stroke-linejoin="round"/>
<path d="M56.2857 38.0714L53.4286 29.5H42L44.8571 38.0714H56.2857ZM56.2857 38.0714H62" stroke="#6C6371" stroke-width="1.5" stroke-linecap="round" stroke-linejoin="round"/>
<path d="M3.00046 49.5007C3.00046 50.0531 2.55264 50.5009 2.00023 50.5009C1.44782 50.5009 1 50.0531 1 49.5007C1 48.9483 1.44782 48.5005 2.00023 48.5005C2.55264 48.5005 3.00046 48.9483 3.00046 49.5007ZM3.00046 49.5007V46.5C3.13382 46.7 3.24051 47.5402 4.20073 47.7003" stroke="#6C6371" stroke-width="0.5" stroke-linecap="round" stroke-linejoin="round"/>
<path d="M4.39867 54.5019C4.95108 54.5019 5.39889 54.0541 5.39889 53.5017C5.39889 52.9493 4.95108 52.5015 4.39867 52.5015C3.84625 52.5015 3.39844 52.9493 3.39844 53.5017C3.39844 54.0541 3.84625 54.5019 4.39867 54.5019Z" stroke="#6C6371" stroke-width="0.5"/>
<path d="M8.19862 53.7019C8.64055 53.7019 8.9988 53.3437 8.9988 52.9017C8.9988 52.4598 8.64055 52.1016 8.19862 52.1016C7.75669 52.1016 7.39844 52.4598 7.39844 52.9017C7.39844 53.3437 7.75669 53.7019 8.19862 53.7019Z" stroke="#6C6371" stroke-width="0.5"/>
<path d="M5.39844 53.5017V50.101C5.39844 49.7369 5.39844 49.5549 5.4971 49.4418C5.59576 49.3288 5.79605 49.3014 6.19658 49.2468C7.40229 49.0823 8.27961 48.5798 8.74704 48.2723C8.85915 48.1986 8.91516 48.1617 8.95721 48.1844C8.99926 48.207 8.99926 48.2733 8.99926 48.4057V52.872" stroke="#6C6371" stroke-width="0.5" stroke-linecap="round" stroke-linejoin="round"/>
<path d="M5.39844 50.9012C7.31888 50.9012 8.59917 49.9677 8.99926 49.7009" stroke="#6C6371" stroke-width="0.5" stroke-linecap="round" stroke-linejoin="round"/>
<path d="M54 23.5L63.8995 33.3995" stroke="#6C6371" stroke-width="1.5" stroke-linecap="round" stroke-linejoin="round"/>
</svg>
